M48
;GenerationSoftware,Autodesk,EAGLE,9.6.2*%
;CreationDate,2023-09-14T20:53:04Z*%
FMAT,2
ICI,OFF
METRIC,TZ,000.000
T3C0.305
T2C1.016
T1C3.048
%
G90
M71
T1
X80264Y68580
X100584Y147828
X2540Y2540
X22860Y2540
X28448Y2540
X48768Y2540
X54356Y2540
X74676Y2540
X80264Y2540
X100584Y2540
X2540Y15748
X22860Y15748
X28448Y15748
X48768Y15748
X54356Y15748
X74676Y15748
X80264Y15748
X100584Y15748
X2540Y28956
X22860Y28956
X28448Y28956
X48768Y28956
X54356Y28956
X74676Y28956
X80264Y28956
X100584Y28956
X2540Y42164
X22860Y42164
X28448Y42164
X48768Y42164
X54356Y42164
X74676Y42164
X80264Y42164
X100584Y42164
X2540Y55372
X22860Y55372
X28448Y55372
X48768Y55372
X54356Y55372
X74676Y55372
X80264Y55372
X100584Y55372
X2540Y68580
X22860Y68580
X28448Y68580
X48768Y68580
X54356Y68580
X74676Y68580
X80264Y147828
X100584Y68580
X2540Y81788
X22860Y81788
X28448Y81788
X48768Y81788
X54356Y81788
X74676Y81788
X80264Y81788
X100584Y81788
X2540Y94996
X22860Y94996
X28448Y94996
X48768Y94996
X54356Y94996
X74676Y94996
X80264Y94996
X100584Y94996
X2540Y108204
X22860Y108204
X28448Y108204
X48768Y108204
X54356Y108204
X74676Y108204
X80264Y108204
X100584Y108204
X2540Y121412
X22860Y121412
X28448Y121412
X48768Y121412
X54356Y121412
X74676Y121412
X80264Y121412
X100584Y121412
X2540Y134620
X22860Y134620
X28448Y134620
X48768Y134620
X54356Y134620
X74676Y134620
X80264Y134620
X100584Y134620
X2540Y147828
X22860Y147828
X28448Y147828
X48768Y147828
X54356Y147828
X74676Y147828
T2
X58166Y27686
X84074Y146558
X19050Y1270
X16510Y1270
X13970Y1270
X11430Y1270
X8890Y1270
X6350Y1270
X44958Y1270
X42418Y1270
X39878Y1270
X37338Y1270
X34798Y1270
X32258Y1270
X70866Y1270
X68326Y1270
X65786Y1270
X63246Y1270
X60706Y1270
X58166Y1270
X96774Y1270
X94234Y1270
X91694Y1270
X89154Y1270
X86614Y1270
X84074Y1270
X19050Y14478
X16510Y14478
X13970Y14478
X11430Y14478
X8890Y14478
X6350Y14478
X44958Y14478
X42418Y14478
X39878Y14478
X37338Y14478
X34798Y14478
X32258Y14478
X70866Y14478
X68326Y14478
X65786Y14478
X63246Y14478
X60706Y14478
X58166Y14478
X96774Y14478
X94234Y14478
X91694Y14478
X89154Y14478
X86614Y14478
X84074Y14478
X19050Y27686
X16510Y27686
X13970Y27686
X11430Y27686
X8890Y27686
X6350Y27686
X44958Y27686
X42418Y27686
X39878Y27686
X37338Y27686
X34798Y27686
X32258Y27686
X70866Y27686
X68326Y27686
X65786Y27686
X63246Y27686
X60706Y27686
X96774Y27686
X94234Y27686
X91694Y27686
X89154Y27686
X86614Y27686
X84074Y27686
X19050Y40894
X16510Y40894
X13970Y40894
X11430Y40894
X8890Y40894
X6350Y40894
X44958Y40894
X42418Y40894
X39878Y40894
X37338Y40894
X34798Y40894
X32258Y40894
X70866Y40894
X68326Y40894
X65786Y40894
X63246Y40894
X60706Y40894
X58166Y40894
X96774Y40894
X94234Y40894
X91694Y40894
X89154Y40894
X86614Y40894
X84074Y40894
X19050Y54102
X16510Y54102
X13970Y54102
X11430Y54102
X8890Y54102
X6350Y54102
X44958Y54102
X42418Y54102
X39878Y54102
X37338Y54102
X34798Y54102
X32258Y54102
X70866Y54102
X68326Y54102
X65786Y54102
X63246Y54102
X60706Y54102
X58166Y54102
X96774Y54102
X94234Y54102
X91694Y54102
X89154Y54102
X86614Y54102
X84074Y54102
X19050Y67310
X16510Y67310
X13970Y67310
X11430Y67310
X8890Y67310
X6350Y67310
X44958Y67310
X42418Y67310
X39878Y67310
X37338Y67310
X34798Y67310
X32258Y67310
X70866Y67310
X68326Y67310
X65786Y67310
X63246Y67310
X60706Y67310
X58166Y67310
X96774Y67310
X94234Y67310
X91694Y67310
X89154Y67310
X86614Y67310
X84074Y67310
X19050Y80518
X16510Y80518
X13970Y80518
X11430Y80518
X8890Y80518
X6350Y80518
X44958Y80518
X42418Y80518
X39878Y80518
X37338Y80518
X34798Y80518
X32258Y80518
X70866Y80518
X68326Y80518
X65786Y80518
X63246Y80518
X60706Y80518
X58166Y80518
X96774Y80518
X94234Y80518
X91694Y80518
X89154Y80518
X86614Y80518
X84074Y80518
X19050Y93726
X16510Y93726
X13970Y93726
X11430Y93726
X8890Y93726
X6350Y93726
X44958Y93726
X42418Y93726
X39878Y93726
X37338Y93726
X34798Y93726
X32258Y93726
X70866Y93726
X68326Y93726
X65786Y93726
X63246Y93726
X60706Y93726
X58166Y93726
X96774Y93726
X94234Y93726
X91694Y93726
X89154Y93726
X86614Y93726
X84074Y93726
X19050Y106934
X16510Y106934
X13970Y106934
X11430Y106934
X8890Y106934
X6350Y106934
X44958Y106934
X42418Y106934
X39878Y106934
X37338Y106934
X34798Y106934
X32258Y106934
X70866Y106934
X68326Y106934
X65786Y106934
X63246Y106934
X60706Y106934
X58166Y106934
X96774Y106934
X94234Y106934
X91694Y106934
X89154Y106934
X86614Y106934
X84074Y106934
X19050Y120142
X16510Y120142
X13970Y120142
X11430Y120142
X8890Y120142
X6350Y120142
X44958Y120142
X42418Y120142
X39878Y120142
X37338Y120142
X34798Y120142
X32258Y120142
X70866Y120142
X68326Y120142
X65786Y120142
X63246Y120142
X60706Y120142
X58166Y120142
X96774Y120142
X94234Y120142
X91694Y120142
X89154Y120142
X86614Y120142
X84074Y120142
X19050Y133350
X16510Y133350
X13970Y133350
X11430Y133350
X8890Y133350
X6350Y133350
X44958Y133350
X42418Y133350
X39878Y133350
X37338Y133350
X34798Y133350
X32258Y133350
X70866Y133350
X68326Y133350
X65786Y133350
X63246Y133350
X60706Y133350
X58166Y133350
X96774Y133350
X94234Y133350
X91694Y133350
X89154Y133350
X86614Y133350
X84074Y133350
X19050Y146558
X16510Y146558
X13970Y146558
X11430Y146558
X8890Y146558
X6350Y146558
X44958Y146558
X42418Y146558
X39878Y146558
X37338Y146558
X34798Y146558
X32258Y146558
X70866Y146558
X68326Y146558
X65786Y146558
X63246Y146558
X60706Y146558
X58166Y146558
X96774Y146558
X94234Y146558
X91694Y146558
X89154Y146558
X86614Y146558
T3
X40894Y46609
X33782Y50673
X38735Y50927
X42926Y48260
X34671Y49784
X27495Y47180
X46228Y50038
X36576Y44196
X31750Y45974
X48260Y46228
X26797Y49530
X31496Y49022
X33528Y42418
X50165Y48006
X44831Y47498
X48768Y49022
X27495Y48006
X35560Y50038
X33528Y43180
X41656Y50038
X38608Y46228
X42545Y50038
X74676Y46990
X62484Y44958
X53403Y50038
X74676Y48006
X58356Y46609
X53403Y49022
X60579Y50673
X66802Y46609
X59690Y50673
X64643Y50927
X68834Y48260
X60579Y49784
X53403Y47180
X72136Y50038
X62484Y44196
X57658Y45974
X74168Y46228
X52705Y49530
X57404Y49022
X59436Y42418
X76073Y48006
X70739Y47498
X74676Y49022
X53403Y48006
X61468Y50038
X59436Y43180
X67564Y50038
X64516Y46228
X68453Y50038
X100584Y46990
X88392Y44958
X79312Y50038
X100584Y48006
X84265Y46609
X79312Y49022
X86487Y50673
X92710Y46609
X85598Y50673
X90551Y50927
X94742Y48260
X86487Y49784
X79312Y47180
X98044Y50038
X88392Y44196
X83566Y45974
X100076Y46228
X78613Y49530
X83312Y49022
X85344Y42418
X101981Y48006
X96647Y47498
X100584Y49022
X79312Y48006
X87376Y50038
X85344Y43180
X93472Y50038
X90424Y46228
X94361Y50038
X22860Y60198
X10668Y58166
X1587Y63246
X22860Y61214
X6540Y59817
X1587Y62230
X8763Y63881
X14986Y59817
X7874Y63881
X12827Y64135
X17018Y61468
X8763Y62992
X1587Y60388
X20320Y63246
X10668Y57404
X5842Y59182
X22352Y59436
X889Y62738
X5588Y62230
X7620Y55626
X24257Y61214
X18923Y60706
X22860Y62230
X1587Y61214
X9652Y63246
X7620Y56388
X15748Y63246
X12700Y59436
X16637Y63246
X48768Y60198
X36576Y58166
X27495Y63246
X48768Y61214
X32448Y59817
X27495Y62230
X34671Y63881
X40894Y59817
X33782Y63881
X38735Y64135
X42926Y61468
X34671Y62992
X27495Y60388
X46228Y63246
X36576Y57404
X31750Y59182
X48260Y59436
X26797Y62738
X31496Y62230
X33528Y55626
X50165Y61214
X44831Y60706
X48768Y62230
X27495Y61214
X35560Y63246
X33528Y56388
X41656Y63246
X38608Y59436
X42545Y63246
X74676Y60198
X62484Y58166
X53403Y63246
X74676Y61214
X58356Y59817
X53403Y62230
X60579Y63881
X66802Y59817
X59690Y63881
X64643Y64135
X68834Y61468
X60579Y62992
X53403Y60388
X72136Y63246
X62484Y57404
X57658Y59182
X74168Y59436
X52705Y62738
X57404Y62230
X59436Y55626
X76073Y61214
X70739Y60706
X74676Y62230
X53403Y61214
X61468Y63246
X59436Y56388
X67564Y63246
X64516Y59436
X68453Y63246
X100584Y60198
X88392Y58166
X79312Y63246
X100584Y61214
X84265Y59817
X79312Y62230
X86487Y63881
X92710Y59817
X85598Y63881
X90551Y64135
X94742Y61468
X86487Y62992
X79312Y60388
X98044Y63246
X88392Y57404
X83566Y59182
X100076Y59436
X78613Y62738
X83312Y62230
X85344Y55626
X101981Y61214
X96647Y60706
X100584Y62230
X79312Y61214
X87376Y63246
X85344Y56388
X93472Y63246
X90424Y59436
X94361Y63246
X22860Y73406
X10668Y71374
X1587Y76454
X22860Y74422
X6540Y73025
X1587Y75438
X8763Y77089
X14986Y73025
X7874Y77089
X12827Y77343
X17018Y74676
X8763Y76200
X1587Y73597
X20320Y76454
X10668Y70612
X5842Y72390
X22352Y72644
X889Y75946
X5588Y75438
X7620Y68834
X24257Y74422
X18923Y73914
X22860Y75438
X1587Y74422
X9652Y76454
X7620Y69596
X15748Y76454
X12700Y72644
X16637Y76454
X48768Y73406
X36576Y71374
X27495Y76454
X48768Y74422
X32448Y73025
X27495Y75438
X34671Y77089
X40894Y73025
X33782Y77089
X38735Y77343
X42926Y74676
X34671Y76200
X27495Y73597
X46228Y76454
X36576Y70612
X31750Y72390
X48260Y72644
X26797Y75946
X31496Y75438
X33528Y68834
X50165Y74422
X44831Y73914
X48768Y75438
X27495Y74422
X35560Y76454
X33528Y69596
X41656Y76454
X38608Y72644
X42545Y76454
X74676Y73406
X62484Y71374
X53403Y76454
X74676Y74422
X58356Y73025
X53403Y75438
X60579Y77089
X66802Y73025
X59690Y77089
X64643Y77343
X68834Y74676
X60579Y76200
X53403Y73597
X72136Y76454
X62484Y70612
X57658Y72390
X74168Y72644
X52705Y75946
X57404Y75438
X59436Y68834
X76073Y74422
X70739Y73914
X74676Y75438
X53403Y74422
X61468Y76454
X59436Y69596
X67564Y76454
X64516Y72644
X68453Y76454
X100584Y73406
X88392Y71374
X79312Y76454
X100584Y74422
X84265Y73025
X79312Y75438
X86487Y77089
X92710Y73025
X85598Y77089
X90551Y77343
X94742Y74676
X86487Y76200
X79312Y73597
X98044Y76454
X88392Y70612
X83566Y72390
X100076Y72644
X78613Y75946
X83312Y75438
X85344Y68834
X101981Y74422
X96647Y73914
X100584Y75438
X79312Y74422
X87376Y76454
X85344Y69596
X93472Y76454
X90424Y72644
X94361Y76454
X22860Y86614
X10668Y84582
X1587Y89662
X22860Y87630
X6540Y86233
X1587Y88646
X8763Y90297
X14986Y86233
X7874Y90297
X12827Y90551
X17018Y87884
X8763Y89408
X1587Y86805
X20320Y89662
X10668Y83820
X5842Y85598
X22352Y85852
X889Y89154
X5588Y88646
X7620Y82042
X24257Y87630
X18923Y87122
X22860Y88646
X1587Y87630
X9652Y89662
X7620Y82804
X15748Y89662
X12700Y85852
X16637Y89662
X48768Y86614
X36576Y84582
X27495Y89662
X48768Y87630
X32448Y86233
X27495Y88646
X34671Y90297
X40894Y86233
X33782Y90297
X38735Y90551
X42926Y87884
X34671Y89408
X27495Y86805
X46228Y89662
X36576Y83820
X31750Y85598
X48260Y85852
X26797Y89154
X31496Y88646
X33528Y82042
X50165Y87630
X44831Y87122
X48768Y88646
X27495Y87630
X35560Y89662
X33528Y82804
X41656Y89662
X38608Y85852
X42545Y89662
X74676Y86614
X62484Y84582
X53403Y89662
X74676Y87630
X58356Y86233
X53403Y88646
X60579Y90297
X66802Y86233
X59690Y90297
X64643Y90551
X68834Y87884
X60579Y89408
X53403Y86805
X72136Y89662
X62484Y83820
X57658Y85598
X74168Y85852
X52705Y89154
X57404Y88646
X59436Y82042
X76073Y87630
X70739Y87122
X74676Y88646
X53403Y87630
X61468Y89662
X59436Y82804
X67564Y89662
X64516Y85852
X68453Y89662
X100584Y86614
X88392Y84582
X79312Y89662
X100584Y87630
X84265Y86233
X79312Y88646
X86487Y90297
X92710Y86233
X85598Y90297
X90551Y90551
X94742Y87884
X86487Y89408
X79312Y86805
X98044Y89662
X88392Y83820
X83566Y85598
X100076Y85852
X78613Y89154
X83312Y88646
X85344Y82042
X101981Y87630
X96647Y87122
X100584Y88646
X79312Y87630
X87376Y89662
X85344Y82804
X93472Y89662
X90424Y85852
X94361Y89662
X22860Y99822
X10668Y97790
X1587Y102870
X22860Y100838
X6540Y99441
X1587Y101854
X8763Y103505
X14986Y99441
X7874Y103505
X12827Y103759
X17018Y101092
X8763Y102616
X1587Y100012
X20320Y102870
X10668Y97028
X5842Y98806
X22352Y99060
X889Y102362
X5588Y101854
X7620Y95250
X24257Y100838
X18923Y100330
X22860Y101854
X1587Y100838
X9652Y102870
X7620Y96012
X15748Y102870
X12700Y99060
X16637Y102870
X48768Y99822
X36576Y97790
X27495Y102870
X48768Y100838
X32448Y99441
X27495Y101854
X34671Y103505
X40894Y99441
X33782Y103505
X38735Y103759
X42926Y101092
X34671Y102616
X27495Y100012
X46228Y102870
X36576Y97028
X31750Y98806
X48260Y99060
X26797Y102362
X31496Y101854
X33528Y95250
X50165Y100838
X44831Y100330
X48768Y101854
X27495Y100838
X35560Y102870
X33528Y96012
X41656Y102870
X38608Y99060
X42545Y102870
X74676Y99822
X62484Y97790
X53403Y102870
X74676Y100838
X58356Y99441
X53403Y101854
X60579Y103505
X66802Y99441
X59690Y103505
X64643Y103759
X68834Y101092
X60579Y102616
X53403Y100012
X72136Y102870
X62484Y97028
X57658Y98806
X74168Y99060
X52705Y102362
X85344Y16002
X59436Y95250
X76073Y100838
X70739Y100330
X74676Y101854
X53403Y100838
X61468Y102870
X59436Y96012
X67564Y102870
X64516Y99060
X68453Y102870
X100584Y99822
X88392Y97790
X79312Y102870
X100584Y100838
X84265Y99441
X79312Y101854
X86487Y103505
X92710Y99441
X85598Y103505
X90551Y103759
X94742Y101092
X86487Y102616
X79312Y100012
X98044Y102870
X88392Y97028
X83566Y98806
X100076Y99060
X78613Y102362
X83312Y101854
X85344Y95250
X101981Y100838
X96647Y100330
X100584Y101854
X79312Y100838
X87376Y102870
X85344Y96012
X93472Y102870
X90424Y99060
X94361Y102870
X22860Y113030
X10668Y110998
X1587Y116078
X22860Y114046
X6540Y112649
X1587Y115062
X8763Y116713
X14986Y112649
X7874Y116713
X12827Y116967
X17018Y114300
X8763Y115824
X1587Y113220
X20320Y116078
X10668Y110236
X5842Y112014
X22352Y112268
X889Y115570
X5588Y115062
X7620Y108458
X24257Y114046
X18923Y113538
X22860Y115062
X1587Y114046
X9652Y116078
X7620Y109220
X15748Y116078
X12700Y112268
X16637Y116078
X48768Y113030
X36576Y110998
X27495Y116078
X48768Y114046
X32448Y112649
X27495Y115062
X34671Y116713
X40894Y112649
X33782Y116713
X38735Y116967
X42926Y114300
X34671Y115824
X27495Y113220
X46228Y116078
X36576Y110236
X31750Y112014
X48260Y112268
X26797Y115570
X31496Y115062
X33528Y108458
X50165Y114046
X44831Y113538
X48768Y115062
X27495Y114046
X35560Y116078
X33528Y109220
X41656Y116078
X38608Y112268
X42545Y116078
X74676Y113030
X62484Y110998
X53403Y116078
X74676Y114046
X58356Y112649
X53403Y115062
X60579Y116713
X66802Y112649
X59690Y116713
X64643Y116967
X68834Y114300
X60579Y115824
X53403Y113220
X72136Y116078
X62484Y110236
X57658Y112014
X74168Y112268
X52705Y115570
X57404Y115062
X59436Y108458
X76073Y114046
X70739Y113538
X74676Y115062
X53403Y114046
X61468Y116078
X59436Y109220
X67564Y116078
X64516Y112268
X68453Y116078
X100584Y113030
X88392Y110998
X79312Y116078
X100584Y114046
X84265Y112649
X79312Y115062
X86487Y116713
X92710Y112649
X85598Y116713
X90551Y116967
X94742Y114300
X86487Y115824
X79312Y113220
X98044Y116078
X88392Y110236
X83566Y112014
X100076Y112268
X78613Y115570
X83312Y115062
X85344Y108458
X101981Y114046
X96647Y113538
X100584Y115062
X79312Y114046
X87376Y116078
X85344Y109220
X93472Y116078
X90424Y112268
X94361Y116078
X22860Y126238
X10668Y124206
X1587Y129286
X22860Y127254
X6540Y125857
X1587Y128270
X8763Y129921
X14986Y125857
X7874Y129921
X12827Y130175
X17018Y127508
X8763Y129032
X1587Y126428
X20320Y129286
X10668Y123444
X5842Y125222
X22352Y125476
X889Y128778
X5588Y128270
X7620Y121666
X24257Y127254
X18923Y126746
X22860Y128270
X1587Y127254
X9652Y129286
X7620Y122428
X15748Y129286
X12700Y125476
X16637Y129286
X48768Y126238
X36576Y124206
X27495Y129286
X48768Y127254
X32448Y125857
X27495Y128270
X34671Y129921
X40894Y125857
X33782Y129921
X38735Y130175
X42926Y127508
X34671Y129032
X27495Y126428
X46228Y129286
X36576Y123444
X31750Y125222
X48260Y125476
X26797Y128778
X31496Y128270
X33528Y121666
X50165Y127254
X44831Y126746
X48768Y128270
X27495Y127254
X35560Y129286
X33528Y122428
X41656Y129286
X38608Y125476
X42545Y129286
X74676Y126238
X62484Y124206
X53403Y129286
X74676Y127254
X58356Y125857
X53403Y128270
X60579Y129921
X66802Y125857
X59690Y129921
X64643Y130175
X68834Y127508
X60579Y129032
X53403Y126428
X72136Y129286
X62484Y123444
X57658Y125222
X74168Y125476
X52705Y128778
X57404Y128270
X59436Y121666
X76073Y127254
X70739Y126746
X74676Y128270
X53403Y127254
X61468Y129286
X59436Y122428
X67564Y129286
X64516Y125476
X68453Y129286
X100584Y126238
X88392Y124206
X79312Y129286
X100584Y127254
X84265Y125857
X79312Y128270
X86487Y129921
X92710Y125857
X85598Y129921
X90551Y130175
X94742Y127508
X86487Y129032
X79312Y126428
X98044Y129286
X88392Y123444
X83566Y125222
X100076Y125476
X78613Y128778
X83312Y128270
X85344Y121666
X101981Y127254
X96647Y126746
X100584Y128270
X79312Y127254
X87376Y129286
X85344Y122428
X93472Y129286
X90424Y125476
X94361Y129286
X22860Y139446
X10668Y137414
X1587Y142494
X22860Y140462
X6540Y139065
X1587Y141478
X8763Y143129
X14986Y139065
X7874Y143129
X12827Y143383
X17018Y140716
X8763Y142240
X1587Y139637
X20320Y142494
X10668Y136652
X5842Y138430
X22352Y138684
X889Y141986
X5588Y141478
X7620Y134874
X24257Y140462
X18923Y139954
X22860Y141478
X1587Y140462
X9652Y142494
X7620Y135636
X15748Y142494
X12700Y138684
X16637Y142494
X48768Y139446
X36576Y137414
X27495Y142494
X48768Y140462
X32448Y139065
X27495Y141478
X34671Y143129
X40894Y139065
X33782Y143129
X38735Y143383
X42926Y140716
X34671Y142240
X27495Y139637
X46228Y142494
X36576Y136652
X31750Y138430
X48260Y138684
X26797Y141986
X31496Y141478
X33528Y134874
X50165Y140462
X44831Y139954
X48768Y141478
X27495Y140462
X35560Y142494
X33528Y135636
X41656Y142494
X38608Y138684
X42545Y142494
X74676Y139446
X62484Y137414
X53403Y142494
X74676Y140462
X58356Y139065
X53403Y141478
X60579Y143129
X66802Y139065
X59690Y143129
X64643Y143383
X68834Y140716
X60579Y142240
X53403Y139637
X72136Y142494
X62484Y136652
X57658Y138430
X74168Y138684
X52705Y141986
X57404Y141478
X59436Y134874
X76073Y140462
X70739Y139954
X74676Y141478
X53403Y140462
X61468Y142494
X59436Y135636
X67564Y142494
X64516Y138684
X68453Y142494
X100584Y139446
X88392Y137414
X79312Y142494
X100584Y140462
X84265Y139065
X79312Y141478
X86487Y143129
X92710Y139065
X85598Y143129
X90551Y143383
X94742Y140716
X86487Y142240
X79312Y139637
X98044Y142494
X88392Y136652
X83566Y138430
X100076Y138684
X78613Y141986
X83312Y141478
X85344Y134874
X101981Y140462
X96647Y139954
X100584Y141478
X79312Y140462
X87376Y142494
X85344Y135636
X93472Y142494
X90424Y138684
X94361Y142494
X22860Y152654
X10668Y150622
X1587Y155702
X22860Y153670
X6540Y152273
X1587Y154686
X8763Y156337
X14986Y152273
X7874Y156337
X12827Y156591
X17018Y153924
X8763Y155448
X1587Y152845
X20320Y155702
X10668Y149860
X5842Y151638
X22352Y151892
X889Y155194
X5588Y154686
X7620Y148082
X24257Y153670
X18923Y153162
X22860Y154686
X1587Y153670
X9652Y155702
X7620Y148844
X15748Y155702
X12700Y151892
X16637Y155702
X48768Y152654
X36576Y150622
X27495Y155702
X48768Y153670
X32448Y152273
X27495Y154686
X34671Y156337
X40894Y152273
X33782Y156337
X38735Y156591
X42926Y153924
X34671Y155448
X27495Y152845
X46228Y155702
X36576Y149860
X31750Y151638
X48260Y151892
X26797Y155194
X31496Y154686
X33528Y148082
X50165Y153670
X44831Y153162
X48768Y154686
X27495Y153670
X35560Y155702
X33528Y148844
X22860Y7366
X38608Y151892
X42545Y155702
X74676Y152654
X62484Y150622
X53403Y155702
X74676Y153670
X58356Y152273
X53403Y154686
X60579Y156337
X66802Y152273
X59690Y156337
X64643Y156591
X68834Y153924
X60579Y155448
X53403Y152845
X72136Y155702
X62484Y149860
X57658Y151638
X74168Y151892
X52705Y155194
X57404Y154686
X59436Y148082
X76073Y153670
X70739Y153162
X74676Y154686
X53403Y153670
X61468Y155702
X59436Y148844
X67564Y155702
X64516Y151892
X68453Y155702
X100584Y152654
X88392Y150622
X79312Y155702
X100584Y153670
X84265Y152273
X79312Y154686
X86487Y156337
X92710Y152273
X85598Y156337
X90551Y156591
X94742Y153924
X86487Y155448
X79312Y152845
X98044Y155702
X88392Y149860
X83566Y151638
X100076Y151892
X78613Y155194
X83312Y154686
X85344Y148082
X101981Y153670
X96647Y153162
X100584Y154686
X79312Y153670
X87376Y155702
X85344Y148844
X93472Y155702
X90424Y151892
X94361Y155702
X10668Y5334
X1587Y10414
X22860Y8382
X6540Y6985
X1587Y9398
X8763Y11049
X14986Y6985
X7874Y11049
X12827Y11303
X17018Y8636
X8763Y10160
X1587Y7556
X20320Y10414
X10668Y4572
X5842Y6350
X22352Y6604
X889Y9906
X5588Y9398
X7620Y2794
X24257Y8382
X18923Y7874
X22860Y9398
X1587Y8382
X9652Y10414
X7620Y3556
X15748Y10414
X12700Y6604
X16637Y10414
X48768Y7366
X36576Y5334
X27495Y10414
X48768Y8382
X32448Y6985
X27495Y9398
X34671Y11049
X40894Y6985
X33782Y11049
X38735Y11303
X42926Y8636
X34671Y10160
X27495Y7556
X46228Y10414
X36576Y4572
X31750Y6350
X48260Y6604
X26797Y9906
X31496Y9398
X33528Y2794
X50165Y8382
X44831Y7874
X48768Y9398
X27495Y8382
X35560Y10414
X33528Y3556
X41656Y10414
X38608Y6604
X42545Y10414
X74676Y7366
X62484Y5334
X53403Y10414
X74676Y8382
X58356Y6985
X53403Y9398
X60579Y11049
X66802Y6985
X59690Y11049
X64643Y11303
X68834Y8636
X60579Y10160
X53403Y7556
X72136Y10414
X62484Y4572
X57658Y6350
X74168Y6604
X52705Y9906
X57404Y9398
X59436Y2794
X76073Y8382
X70739Y7874
X74676Y9398
X53403Y8382
X61468Y10414
X59436Y3556
X67564Y10414
X64516Y6604
X68453Y10414
X100584Y7366
X88392Y5334
X79312Y10414
X100584Y8382
X84265Y6985
X79312Y9398
X86487Y11049
X92710Y6985
X85598Y11049
X90551Y11303
X94742Y8636
X86487Y10160
X79312Y7556
X98044Y10414
X88392Y4572
X83566Y6350
X100076Y6604
X78613Y9906
X83312Y9398
X85344Y2794
X101981Y8382
X96647Y7874
X100584Y9398
X79312Y8382
X87376Y10414
X85344Y3556
X93472Y10414
X90424Y6604
X94361Y10414
X22860Y20574
X10668Y18542
X1587Y23622
X22860Y21590
X6540Y20193
X1587Y22606
X8763Y24257
X14986Y20193
X7874Y24257
X12827Y24511
X17018Y21844
X8763Y23368
X1587Y20765
X20320Y23622
X10668Y17780
X5842Y19558
X22352Y19812
X889Y23114
X5588Y22606
X7620Y16002
X24257Y21590
X18923Y21082
X22860Y22606
X1587Y21590
X9652Y23622
X7620Y16764
X15748Y23622
X12700Y19812
X16637Y23622
X48768Y20574
X36576Y18542
X27495Y23622
X48768Y21590
X32448Y20193
X27495Y22606
X34671Y24257
X40894Y20193
X33782Y24257
X38735Y24511
X42926Y21844
X34671Y23368
X27495Y20765
X46228Y23622
X36576Y17780
X31750Y19558
X48260Y19812
X57404Y101854
X26797Y23114
X31496Y22606
X33528Y16002
X50165Y21590
X44831Y21082
X48768Y22606
X27495Y21590
X35560Y23622
X33528Y16764
X41656Y23622
X38608Y19812
X42545Y23622
X74676Y20574
X62484Y18542
X53403Y23622
X74676Y21590
X58356Y20193
X53403Y22606
X60579Y24257
X66802Y20193
X59690Y24257
X64643Y24511
X68834Y21844
X60579Y23368
X53403Y20765
X72136Y23622
X62484Y17780
X57658Y19558
X74168Y19812
X52705Y23114
X57404Y22606
X59436Y16002
X76073Y21590
X70739Y21082
X74676Y22606
X53403Y21590
X61468Y23622
X59436Y16764
X67564Y23622
X64516Y19812
X68453Y23622
X100584Y20574
X88392Y18542
X79312Y23622
X100584Y21590
X84265Y20193
X79312Y22606
X86487Y24257
X92710Y20193
X85598Y24257
X90551Y24511
X94742Y21844
X86487Y23368
X79312Y20765
X98044Y23622
X88392Y17780
X83566Y19558
X100076Y19812
X78613Y23114
X83312Y22606
X101981Y21590
X96647Y21082
X100584Y22606
X79312Y21590
X87376Y23622
X85344Y16764
X93472Y23622
X90424Y19812
X94361Y23622
X22860Y33782
X10668Y31750
X1587Y36830
X22860Y34798
X6540Y33401
X1587Y35814
X8763Y37465
X14986Y33401
X7874Y37465
X12827Y37719
X17018Y35052
X8763Y36576
X1587Y33973
X20320Y36830
X10668Y30988
X5842Y32766
X22352Y33020
X889Y36322
X5588Y35814
X7620Y29210
X24257Y34798
X18923Y34290
X22860Y35814
X1587Y34798
X9652Y36830
X7620Y29972
X15748Y36830
X12700Y33020
X16637Y36830
X48768Y33782
X36576Y31750
X27495Y36830
X48768Y34798
X32448Y33401
X27495Y35814
X34671Y37465
X40894Y33401
X33782Y37465
X38735Y37719
X42926Y35052
X34671Y36576
X27495Y33973
X46228Y36830
X36576Y30988
X31750Y32766
X48260Y33020
X26797Y36322
X31496Y35814
X33528Y29210
X50165Y34798
X44831Y34290
X48768Y35814
X27495Y34798
X35560Y36830
X33528Y29972
X41656Y36830
X38608Y33020
X42545Y36830
X74676Y33782
X62484Y31750
X53403Y36830
X74676Y34798
X58356Y33401
X53403Y35814
X60579Y37465
X66802Y33401
X59690Y37465
X64643Y37719
X68834Y35052
X60579Y36576
X53403Y33973
X72136Y36830
X62484Y30988
X57658Y32766
X74168Y33020
X52705Y36322
X57404Y35814
X59436Y29210
X76073Y34798
X70739Y34290
X74676Y35814
X53403Y34798
X61468Y36830
X59436Y29972
X67564Y36830
X64516Y33020
X68453Y36830
X100584Y33782
X88392Y31750
X79312Y36830
X100584Y34798
X84265Y33401
X79312Y35814
X86487Y37465
X92710Y33401
X85598Y37465
X90551Y37719
X94742Y35052
X86487Y36576
X79312Y33973
X98044Y36830
X88392Y30988
X83566Y32766
X100076Y33020
X78613Y36322
X83312Y35814
X85344Y29210
X101981Y34798
X96647Y34290
X100584Y35814
X79312Y34798
X87376Y36830
X85344Y29972
X93472Y36830
X90424Y33020
X94361Y36830
X22860Y46990
X10668Y44958
X1587Y50038
X22860Y48006
X6540Y46609
X1587Y49022
X8763Y50673
X14986Y46609
X7874Y50673
X12827Y50927
X17018Y48260
X8763Y49784
X1587Y47180
X20320Y50038
X10668Y44196
X5842Y45974
X22352Y46228
X889Y49530
X5588Y49022
X7620Y42418
X24257Y48006
X18923Y47498
X22860Y49022
X1587Y48006
X9652Y50038
X7620Y43180
X15748Y50038
X12700Y46228
X16637Y50038
X48768Y46990
X36576Y44958
X27495Y50038
X48768Y48006
X32448Y46609
X27495Y49022
X34671Y50673
X41656Y155702
M30