G04 EAGLE Gerber RS-274X export*
G75*
%MOMM*%
%FSLAX34Y34*%
%LPD*%
%INSoldermask Bottom*%
%IPPOS*%
%AMOC8*
5,1,8,0,0,1.08239X$1,22.5*%
G01*
%ADD10R,0.400000X0.400000*%
%ADD11C,2.006600*%
%ADD12C,0.762000*%
%ADD13C,3.175000*%
%ADD14C,0.225369*%
%ADD15C,1.127000*%
%ADD16C,1.270000*%
%ADD17C,1.627000*%


D10*
X142750Y86480D03*
X142750Y91480D03*
X142750Y96480D03*
X142750Y101480D03*
X134500Y104480D03*
X129500Y104480D03*
X124500Y104480D03*
X119500Y104480D03*
X111250Y101480D03*
X111250Y96480D03*
X111250Y91480D03*
X111250Y86480D03*
X119500Y83480D03*
X124500Y83480D03*
X129500Y83480D03*
X134500Y83480D03*
D11*
X190500Y12700D03*
X165100Y12700D03*
X139700Y12700D03*
X114300Y12700D03*
X88900Y12700D03*
X63500Y12700D03*
D12*
X48260Y119380D03*
X245110Y8890D03*
D13*
X25400Y25400D03*
X228600Y25400D03*
D14*
X94012Y93932D02*
X94012Y98948D01*
X99028Y98948D01*
X99028Y93932D01*
X94012Y93932D01*
X94012Y96073D02*
X99028Y96073D01*
X99028Y98214D02*
X94012Y98214D01*
X94012Y88948D02*
X94012Y83932D01*
X94012Y88948D02*
X99028Y88948D01*
X99028Y83932D01*
X94012Y83932D01*
X94012Y86073D02*
X99028Y86073D01*
X99028Y88214D02*
X94012Y88214D01*
X154972Y93932D02*
X154972Y98948D01*
X159988Y98948D01*
X159988Y93932D01*
X154972Y93932D01*
X154972Y96073D02*
X159988Y96073D01*
X159988Y98214D02*
X154972Y98214D01*
X154972Y88948D02*
X154972Y83932D01*
X154972Y88948D02*
X159988Y88948D01*
X159988Y83932D01*
X154972Y83932D01*
X154972Y86073D02*
X159988Y86073D01*
X159988Y88214D02*
X154972Y88214D01*
D10*
X401830Y86480D03*
X401830Y91480D03*
X401830Y96480D03*
X401830Y101480D03*
X393580Y104480D03*
X388580Y104480D03*
X383580Y104480D03*
X378580Y104480D03*
X370330Y101480D03*
X370330Y96480D03*
X370330Y91480D03*
X370330Y86480D03*
X378580Y83480D03*
X383580Y83480D03*
X388580Y83480D03*
X393580Y83480D03*
D11*
X449580Y12700D03*
X424180Y12700D03*
X398780Y12700D03*
X373380Y12700D03*
X347980Y12700D03*
X322580Y12700D03*
D12*
X307340Y119380D03*
X504190Y8890D03*
D13*
X284480Y25400D03*
X487680Y25400D03*
D14*
X353092Y93932D02*
X353092Y98948D01*
X358108Y98948D01*
X358108Y93932D01*
X353092Y93932D01*
X353092Y96073D02*
X358108Y96073D01*
X358108Y98214D02*
X353092Y98214D01*
X353092Y88948D02*
X353092Y83932D01*
X353092Y88948D02*
X358108Y88948D01*
X358108Y83932D01*
X353092Y83932D01*
X353092Y86073D02*
X358108Y86073D01*
X358108Y88214D02*
X353092Y88214D01*
X414052Y93932D02*
X414052Y98948D01*
X419068Y98948D01*
X419068Y93932D01*
X414052Y93932D01*
X414052Y96073D02*
X419068Y96073D01*
X419068Y98214D02*
X414052Y98214D01*
X414052Y88948D02*
X414052Y83932D01*
X414052Y88948D02*
X419068Y88948D01*
X419068Y83932D01*
X414052Y83932D01*
X414052Y86073D02*
X419068Y86073D01*
X419068Y88214D02*
X414052Y88214D01*
D10*
X660910Y86480D03*
X660910Y91480D03*
X660910Y96480D03*
X660910Y101480D03*
X652660Y104480D03*
X647660Y104480D03*
X642660Y104480D03*
X637660Y104480D03*
X629410Y101480D03*
X629410Y96480D03*
X629410Y91480D03*
X629410Y86480D03*
X637660Y83480D03*
X642660Y83480D03*
X647660Y83480D03*
X652660Y83480D03*
D11*
X708660Y12700D03*
X683260Y12700D03*
X657860Y12700D03*
X632460Y12700D03*
X607060Y12700D03*
X581660Y12700D03*
D12*
X566420Y119380D03*
X763270Y8890D03*
D13*
X543560Y25400D03*
X746760Y25400D03*
D14*
X612172Y93932D02*
X612172Y98948D01*
X617188Y98948D01*
X617188Y93932D01*
X612172Y93932D01*
X612172Y96073D02*
X617188Y96073D01*
X617188Y98214D02*
X612172Y98214D01*
X612172Y88948D02*
X612172Y83932D01*
X612172Y88948D02*
X617188Y88948D01*
X617188Y83932D01*
X612172Y83932D01*
X612172Y86073D02*
X617188Y86073D01*
X617188Y88214D02*
X612172Y88214D01*
X673132Y93932D02*
X673132Y98948D01*
X678148Y98948D01*
X678148Y93932D01*
X673132Y93932D01*
X673132Y96073D02*
X678148Y96073D01*
X678148Y98214D02*
X673132Y98214D01*
X673132Y88948D02*
X673132Y83932D01*
X673132Y88948D02*
X678148Y88948D01*
X678148Y83932D01*
X673132Y83932D01*
X673132Y86073D02*
X678148Y86073D01*
X678148Y88214D02*
X673132Y88214D01*
D10*
X919990Y86480D03*
X919990Y91480D03*
X919990Y96480D03*
X919990Y101480D03*
X911740Y104480D03*
X906740Y104480D03*
X901740Y104480D03*
X896740Y104480D03*
X888490Y101480D03*
X888490Y96480D03*
X888490Y91480D03*
X888490Y86480D03*
X896740Y83480D03*
X901740Y83480D03*
X906740Y83480D03*
X911740Y83480D03*
D11*
X967740Y12700D03*
X942340Y12700D03*
X916940Y12700D03*
X891540Y12700D03*
X866140Y12700D03*
X840740Y12700D03*
D12*
X825500Y119380D03*
X1022350Y8890D03*
D13*
X802640Y25400D03*
X1005840Y25400D03*
D14*
X871252Y93932D02*
X871252Y98948D01*
X876268Y98948D01*
X876268Y93932D01*
X871252Y93932D01*
X871252Y96073D02*
X876268Y96073D01*
X876268Y98214D02*
X871252Y98214D01*
X871252Y88948D02*
X871252Y83932D01*
X871252Y88948D02*
X876268Y88948D01*
X876268Y83932D01*
X871252Y83932D01*
X871252Y86073D02*
X876268Y86073D01*
X876268Y88214D02*
X871252Y88214D01*
X932212Y93932D02*
X932212Y98948D01*
X937228Y98948D01*
X937228Y93932D01*
X932212Y93932D01*
X932212Y96073D02*
X937228Y96073D01*
X937228Y98214D02*
X932212Y98214D01*
X932212Y88948D02*
X932212Y83932D01*
X932212Y88948D02*
X937228Y88948D01*
X937228Y83932D01*
X932212Y83932D01*
X932212Y86073D02*
X937228Y86073D01*
X937228Y88214D02*
X932212Y88214D01*
D10*
X142750Y218560D03*
X142750Y223560D03*
X142750Y228560D03*
X142750Y233560D03*
X134500Y236560D03*
X129500Y236560D03*
X124500Y236560D03*
X119500Y236560D03*
X111250Y233560D03*
X111250Y228560D03*
X111250Y223560D03*
X111250Y218560D03*
X119500Y215560D03*
X124500Y215560D03*
X129500Y215560D03*
X134500Y215560D03*
D11*
X190500Y144780D03*
X165100Y144780D03*
X139700Y144780D03*
X114300Y144780D03*
X88900Y144780D03*
X63500Y144780D03*
D12*
X48260Y251460D03*
X245110Y140970D03*
D13*
X25400Y157480D03*
X228600Y157480D03*
D14*
X94012Y226012D02*
X94012Y231028D01*
X99028Y231028D01*
X99028Y226012D01*
X94012Y226012D01*
X94012Y228153D02*
X99028Y228153D01*
X99028Y230294D02*
X94012Y230294D01*
X94012Y221028D02*
X94012Y216012D01*
X94012Y221028D02*
X99028Y221028D01*
X99028Y216012D01*
X94012Y216012D01*
X94012Y218153D02*
X99028Y218153D01*
X99028Y220294D02*
X94012Y220294D01*
X154972Y226012D02*
X154972Y231028D01*
X159988Y231028D01*
X159988Y226012D01*
X154972Y226012D01*
X154972Y228153D02*
X159988Y228153D01*
X159988Y230294D02*
X154972Y230294D01*
X154972Y221028D02*
X154972Y216012D01*
X154972Y221028D02*
X159988Y221028D01*
X159988Y216012D01*
X154972Y216012D01*
X154972Y218153D02*
X159988Y218153D01*
X159988Y220294D02*
X154972Y220294D01*
D10*
X401830Y218560D03*
X401830Y223560D03*
X401830Y228560D03*
X401830Y233560D03*
X393580Y236560D03*
X388580Y236560D03*
X383580Y236560D03*
X378580Y236560D03*
X370330Y233560D03*
X370330Y228560D03*
X370330Y223560D03*
X370330Y218560D03*
X378580Y215560D03*
X383580Y215560D03*
X388580Y215560D03*
X393580Y215560D03*
D11*
X449580Y144780D03*
X424180Y144780D03*
X398780Y144780D03*
X373380Y144780D03*
X347980Y144780D03*
X322580Y144780D03*
D12*
X307340Y251460D03*
X504190Y140970D03*
D13*
X284480Y157480D03*
X487680Y157480D03*
D14*
X353092Y226012D02*
X353092Y231028D01*
X358108Y231028D01*
X358108Y226012D01*
X353092Y226012D01*
X353092Y228153D02*
X358108Y228153D01*
X358108Y230294D02*
X353092Y230294D01*
X353092Y221028D02*
X353092Y216012D01*
X353092Y221028D02*
X358108Y221028D01*
X358108Y216012D01*
X353092Y216012D01*
X353092Y218153D02*
X358108Y218153D01*
X358108Y220294D02*
X353092Y220294D01*
X414052Y226012D02*
X414052Y231028D01*
X419068Y231028D01*
X419068Y226012D01*
X414052Y226012D01*
X414052Y228153D02*
X419068Y228153D01*
X419068Y230294D02*
X414052Y230294D01*
X414052Y221028D02*
X414052Y216012D01*
X414052Y221028D02*
X419068Y221028D01*
X419068Y216012D01*
X414052Y216012D01*
X414052Y218153D02*
X419068Y218153D01*
X419068Y220294D02*
X414052Y220294D01*
D10*
X660910Y218560D03*
X660910Y223560D03*
X660910Y228560D03*
X660910Y233560D03*
X652660Y236560D03*
X647660Y236560D03*
X642660Y236560D03*
X637660Y236560D03*
X629410Y233560D03*
X629410Y228560D03*
X629410Y223560D03*
X629410Y218560D03*
X637660Y215560D03*
X642660Y215560D03*
X647660Y215560D03*
X652660Y215560D03*
D11*
X708660Y144780D03*
X683260Y144780D03*
X657860Y144780D03*
X632460Y144780D03*
X607060Y144780D03*
X581660Y144780D03*
D12*
X566420Y251460D03*
X763270Y140970D03*
D13*
X543560Y157480D03*
X746760Y157480D03*
D14*
X612172Y226012D02*
X612172Y231028D01*
X617188Y231028D01*
X617188Y226012D01*
X612172Y226012D01*
X612172Y228153D02*
X617188Y228153D01*
X617188Y230294D02*
X612172Y230294D01*
X612172Y221028D02*
X612172Y216012D01*
X612172Y221028D02*
X617188Y221028D01*
X617188Y216012D01*
X612172Y216012D01*
X612172Y218153D02*
X617188Y218153D01*
X617188Y220294D02*
X612172Y220294D01*
X673132Y226012D02*
X673132Y231028D01*
X678148Y231028D01*
X678148Y226012D01*
X673132Y226012D01*
X673132Y228153D02*
X678148Y228153D01*
X678148Y230294D02*
X673132Y230294D01*
X673132Y221028D02*
X673132Y216012D01*
X673132Y221028D02*
X678148Y221028D01*
X678148Y216012D01*
X673132Y216012D01*
X673132Y218153D02*
X678148Y218153D01*
X678148Y220294D02*
X673132Y220294D01*
D10*
X919990Y218560D03*
X919990Y223560D03*
X919990Y228560D03*
X919990Y233560D03*
X911740Y236560D03*
X906740Y236560D03*
X901740Y236560D03*
X896740Y236560D03*
X888490Y233560D03*
X888490Y228560D03*
X888490Y223560D03*
X888490Y218560D03*
X896740Y215560D03*
X901740Y215560D03*
X906740Y215560D03*
X911740Y215560D03*
D11*
X967740Y144780D03*
X942340Y144780D03*
X916940Y144780D03*
X891540Y144780D03*
X866140Y144780D03*
X840740Y144780D03*
D12*
X825500Y251460D03*
X1022350Y140970D03*
D13*
X802640Y157480D03*
X1005840Y157480D03*
D14*
X871252Y226012D02*
X871252Y231028D01*
X876268Y231028D01*
X876268Y226012D01*
X871252Y226012D01*
X871252Y228153D02*
X876268Y228153D01*
X876268Y230294D02*
X871252Y230294D01*
X871252Y221028D02*
X871252Y216012D01*
X871252Y221028D02*
X876268Y221028D01*
X876268Y216012D01*
X871252Y216012D01*
X871252Y218153D02*
X876268Y218153D01*
X876268Y220294D02*
X871252Y220294D01*
X932212Y226012D02*
X932212Y231028D01*
X937228Y231028D01*
X937228Y226012D01*
X932212Y226012D01*
X932212Y228153D02*
X937228Y228153D01*
X937228Y230294D02*
X932212Y230294D01*
X932212Y221028D02*
X932212Y216012D01*
X932212Y221028D02*
X937228Y221028D01*
X937228Y216012D01*
X932212Y216012D01*
X932212Y218153D02*
X937228Y218153D01*
X937228Y220294D02*
X932212Y220294D01*
D10*
X142750Y350640D03*
X142750Y355640D03*
X142750Y360640D03*
X142750Y365640D03*
X134500Y368640D03*
X129500Y368640D03*
X124500Y368640D03*
X119500Y368640D03*
X111250Y365640D03*
X111250Y360640D03*
X111250Y355640D03*
X111250Y350640D03*
X119500Y347640D03*
X124500Y347640D03*
X129500Y347640D03*
X134500Y347640D03*
D11*
X190500Y276860D03*
X165100Y276860D03*
X139700Y276860D03*
X114300Y276860D03*
X88900Y276860D03*
X63500Y276860D03*
D12*
X48260Y383540D03*
X245110Y273050D03*
D13*
X25400Y289560D03*
X228600Y289560D03*
D14*
X94012Y358092D02*
X94012Y363108D01*
X99028Y363108D01*
X99028Y358092D01*
X94012Y358092D01*
X94012Y360233D02*
X99028Y360233D01*
X99028Y362374D02*
X94012Y362374D01*
X94012Y353108D02*
X94012Y348092D01*
X94012Y353108D02*
X99028Y353108D01*
X99028Y348092D01*
X94012Y348092D01*
X94012Y350233D02*
X99028Y350233D01*
X99028Y352374D02*
X94012Y352374D01*
X154972Y358092D02*
X154972Y363108D01*
X159988Y363108D01*
X159988Y358092D01*
X154972Y358092D01*
X154972Y360233D02*
X159988Y360233D01*
X159988Y362374D02*
X154972Y362374D01*
X154972Y353108D02*
X154972Y348092D01*
X154972Y353108D02*
X159988Y353108D01*
X159988Y348092D01*
X154972Y348092D01*
X154972Y350233D02*
X159988Y350233D01*
X159988Y352374D02*
X154972Y352374D01*
D10*
X401830Y350640D03*
X401830Y355640D03*
X401830Y360640D03*
X401830Y365640D03*
X393580Y368640D03*
X388580Y368640D03*
X383580Y368640D03*
X378580Y368640D03*
X370330Y365640D03*
X370330Y360640D03*
X370330Y355640D03*
X370330Y350640D03*
X378580Y347640D03*
X383580Y347640D03*
X388580Y347640D03*
X393580Y347640D03*
D11*
X449580Y276860D03*
X424180Y276860D03*
X398780Y276860D03*
X373380Y276860D03*
X347980Y276860D03*
X322580Y276860D03*
D12*
X307340Y383540D03*
X504190Y273050D03*
D13*
X284480Y289560D03*
X487680Y289560D03*
D14*
X353092Y358092D02*
X353092Y363108D01*
X358108Y363108D01*
X358108Y358092D01*
X353092Y358092D01*
X353092Y360233D02*
X358108Y360233D01*
X358108Y362374D02*
X353092Y362374D01*
X353092Y353108D02*
X353092Y348092D01*
X353092Y353108D02*
X358108Y353108D01*
X358108Y348092D01*
X353092Y348092D01*
X353092Y350233D02*
X358108Y350233D01*
X358108Y352374D02*
X353092Y352374D01*
X414052Y358092D02*
X414052Y363108D01*
X419068Y363108D01*
X419068Y358092D01*
X414052Y358092D01*
X414052Y360233D02*
X419068Y360233D01*
X419068Y362374D02*
X414052Y362374D01*
X414052Y353108D02*
X414052Y348092D01*
X414052Y353108D02*
X419068Y353108D01*
X419068Y348092D01*
X414052Y348092D01*
X414052Y350233D02*
X419068Y350233D01*
X419068Y352374D02*
X414052Y352374D01*
D10*
X660910Y350640D03*
X660910Y355640D03*
X660910Y360640D03*
X660910Y365640D03*
X652660Y368640D03*
X647660Y368640D03*
X642660Y368640D03*
X637660Y368640D03*
X629410Y365640D03*
X629410Y360640D03*
X629410Y355640D03*
X629410Y350640D03*
X637660Y347640D03*
X642660Y347640D03*
X647660Y347640D03*
X652660Y347640D03*
D11*
X708660Y276860D03*
X683260Y276860D03*
X657860Y276860D03*
X632460Y276860D03*
X607060Y276860D03*
X581660Y276860D03*
D12*
X566420Y383540D03*
X763270Y273050D03*
D13*
X543560Y289560D03*
X746760Y289560D03*
D14*
X612172Y358092D02*
X612172Y363108D01*
X617188Y363108D01*
X617188Y358092D01*
X612172Y358092D01*
X612172Y360233D02*
X617188Y360233D01*
X617188Y362374D02*
X612172Y362374D01*
X612172Y353108D02*
X612172Y348092D01*
X612172Y353108D02*
X617188Y353108D01*
X617188Y348092D01*
X612172Y348092D01*
X612172Y350233D02*
X617188Y350233D01*
X617188Y352374D02*
X612172Y352374D01*
X673132Y358092D02*
X673132Y363108D01*
X678148Y363108D01*
X678148Y358092D01*
X673132Y358092D01*
X673132Y360233D02*
X678148Y360233D01*
X678148Y362374D02*
X673132Y362374D01*
X673132Y353108D02*
X673132Y348092D01*
X673132Y353108D02*
X678148Y353108D01*
X678148Y348092D01*
X673132Y348092D01*
X673132Y350233D02*
X678148Y350233D01*
X678148Y352374D02*
X673132Y352374D01*
D10*
X919990Y350640D03*
X919990Y355640D03*
X919990Y360640D03*
X919990Y365640D03*
X911740Y368640D03*
X906740Y368640D03*
X901740Y368640D03*
X896740Y368640D03*
X888490Y365640D03*
X888490Y360640D03*
X888490Y355640D03*
X888490Y350640D03*
X896740Y347640D03*
X901740Y347640D03*
X906740Y347640D03*
X911740Y347640D03*
D11*
X967740Y276860D03*
X942340Y276860D03*
X916940Y276860D03*
X891540Y276860D03*
X866140Y276860D03*
X840740Y276860D03*
D12*
X825500Y383540D03*
X1022350Y273050D03*
D13*
X802640Y289560D03*
X1005840Y289560D03*
D14*
X871252Y358092D02*
X871252Y363108D01*
X876268Y363108D01*
X876268Y358092D01*
X871252Y358092D01*
X871252Y360233D02*
X876268Y360233D01*
X876268Y362374D02*
X871252Y362374D01*
X871252Y353108D02*
X871252Y348092D01*
X871252Y353108D02*
X876268Y353108D01*
X876268Y348092D01*
X871252Y348092D01*
X871252Y350233D02*
X876268Y350233D01*
X876268Y352374D02*
X871252Y352374D01*
X932212Y358092D02*
X932212Y363108D01*
X937228Y363108D01*
X937228Y358092D01*
X932212Y358092D01*
X932212Y360233D02*
X937228Y360233D01*
X937228Y362374D02*
X932212Y362374D01*
X932212Y353108D02*
X932212Y348092D01*
X932212Y353108D02*
X937228Y353108D01*
X937228Y348092D01*
X932212Y348092D01*
X932212Y350233D02*
X937228Y350233D01*
X937228Y352374D02*
X932212Y352374D01*
D10*
X142750Y482720D03*
X142750Y487720D03*
X142750Y492720D03*
X142750Y497720D03*
X134500Y500720D03*
X129500Y500720D03*
X124500Y500720D03*
X119500Y500720D03*
X111250Y497720D03*
X111250Y492720D03*
X111250Y487720D03*
X111250Y482720D03*
X119500Y479720D03*
X124500Y479720D03*
X129500Y479720D03*
X134500Y479720D03*
D11*
X190500Y408940D03*
X165100Y408940D03*
X139700Y408940D03*
X114300Y408940D03*
X88900Y408940D03*
X63500Y408940D03*
D12*
X48260Y515620D03*
X245110Y405130D03*
D13*
X25400Y421640D03*
X228600Y421640D03*
D14*
X94012Y490172D02*
X94012Y495188D01*
X99028Y495188D01*
X99028Y490172D01*
X94012Y490172D01*
X94012Y492313D02*
X99028Y492313D01*
X99028Y494454D02*
X94012Y494454D01*
X94012Y485188D02*
X94012Y480172D01*
X94012Y485188D02*
X99028Y485188D01*
X99028Y480172D01*
X94012Y480172D01*
X94012Y482313D02*
X99028Y482313D01*
X99028Y484454D02*
X94012Y484454D01*
X154972Y490172D02*
X154972Y495188D01*
X159988Y495188D01*
X159988Y490172D01*
X154972Y490172D01*
X154972Y492313D02*
X159988Y492313D01*
X159988Y494454D02*
X154972Y494454D01*
X154972Y485188D02*
X154972Y480172D01*
X154972Y485188D02*
X159988Y485188D01*
X159988Y480172D01*
X154972Y480172D01*
X154972Y482313D02*
X159988Y482313D01*
X159988Y484454D02*
X154972Y484454D01*
D10*
X401830Y482720D03*
X401830Y487720D03*
X401830Y492720D03*
X401830Y497720D03*
X393580Y500720D03*
X388580Y500720D03*
X383580Y500720D03*
X378580Y500720D03*
X370330Y497720D03*
X370330Y492720D03*
X370330Y487720D03*
X370330Y482720D03*
X378580Y479720D03*
X383580Y479720D03*
X388580Y479720D03*
X393580Y479720D03*
D11*
X449580Y408940D03*
X424180Y408940D03*
X398780Y408940D03*
X373380Y408940D03*
X347980Y408940D03*
X322580Y408940D03*
D12*
X307340Y515620D03*
X504190Y405130D03*
D13*
X284480Y421640D03*
X487680Y421640D03*
D14*
X353092Y490172D02*
X353092Y495188D01*
X358108Y495188D01*
X358108Y490172D01*
X353092Y490172D01*
X353092Y492313D02*
X358108Y492313D01*
X358108Y494454D02*
X353092Y494454D01*
X353092Y485188D02*
X353092Y480172D01*
X353092Y485188D02*
X358108Y485188D01*
X358108Y480172D01*
X353092Y480172D01*
X353092Y482313D02*
X358108Y482313D01*
X358108Y484454D02*
X353092Y484454D01*
X414052Y490172D02*
X414052Y495188D01*
X419068Y495188D01*
X419068Y490172D01*
X414052Y490172D01*
X414052Y492313D02*
X419068Y492313D01*
X419068Y494454D02*
X414052Y494454D01*
X414052Y485188D02*
X414052Y480172D01*
X414052Y485188D02*
X419068Y485188D01*
X419068Y480172D01*
X414052Y480172D01*
X414052Y482313D02*
X419068Y482313D01*
X419068Y484454D02*
X414052Y484454D01*
D10*
X660910Y482720D03*
X660910Y487720D03*
X660910Y492720D03*
X660910Y497720D03*
X652660Y500720D03*
X647660Y500720D03*
X642660Y500720D03*
X637660Y500720D03*
X629410Y497720D03*
X629410Y492720D03*
X629410Y487720D03*
X629410Y482720D03*
X637660Y479720D03*
X642660Y479720D03*
X647660Y479720D03*
X652660Y479720D03*
D11*
X708660Y408940D03*
X683260Y408940D03*
X657860Y408940D03*
X632460Y408940D03*
X607060Y408940D03*
X581660Y408940D03*
D12*
X566420Y515620D03*
X763270Y405130D03*
D13*
X543560Y421640D03*
X746760Y421640D03*
D14*
X612172Y490172D02*
X612172Y495188D01*
X617188Y495188D01*
X617188Y490172D01*
X612172Y490172D01*
X612172Y492313D02*
X617188Y492313D01*
X617188Y494454D02*
X612172Y494454D01*
X612172Y485188D02*
X612172Y480172D01*
X612172Y485188D02*
X617188Y485188D01*
X617188Y480172D01*
X612172Y480172D01*
X612172Y482313D02*
X617188Y482313D01*
X617188Y484454D02*
X612172Y484454D01*
X673132Y490172D02*
X673132Y495188D01*
X678148Y495188D01*
X678148Y490172D01*
X673132Y490172D01*
X673132Y492313D02*
X678148Y492313D01*
X678148Y494454D02*
X673132Y494454D01*
X673132Y485188D02*
X673132Y480172D01*
X673132Y485188D02*
X678148Y485188D01*
X678148Y480172D01*
X673132Y480172D01*
X673132Y482313D02*
X678148Y482313D01*
X678148Y484454D02*
X673132Y484454D01*
D10*
X919990Y482720D03*
X919990Y487720D03*
X919990Y492720D03*
X919990Y497720D03*
X911740Y500720D03*
X906740Y500720D03*
X901740Y500720D03*
X896740Y500720D03*
X888490Y497720D03*
X888490Y492720D03*
X888490Y487720D03*
X888490Y482720D03*
X896740Y479720D03*
X901740Y479720D03*
X906740Y479720D03*
X911740Y479720D03*
D11*
X967740Y408940D03*
X942340Y408940D03*
X916940Y408940D03*
X891540Y408940D03*
X866140Y408940D03*
X840740Y408940D03*
D12*
X825500Y515620D03*
X1022350Y405130D03*
D13*
X802640Y421640D03*
X1005840Y421640D03*
D14*
X871252Y490172D02*
X871252Y495188D01*
X876268Y495188D01*
X876268Y490172D01*
X871252Y490172D01*
X871252Y492313D02*
X876268Y492313D01*
X876268Y494454D02*
X871252Y494454D01*
X871252Y485188D02*
X871252Y480172D01*
X871252Y485188D02*
X876268Y485188D01*
X876268Y480172D01*
X871252Y480172D01*
X871252Y482313D02*
X876268Y482313D01*
X876268Y484454D02*
X871252Y484454D01*
X932212Y490172D02*
X932212Y495188D01*
X937228Y495188D01*
X937228Y490172D01*
X932212Y490172D01*
X932212Y492313D02*
X937228Y492313D01*
X937228Y494454D02*
X932212Y494454D01*
X932212Y485188D02*
X932212Y480172D01*
X932212Y485188D02*
X937228Y485188D01*
X937228Y480172D01*
X932212Y480172D01*
X932212Y482313D02*
X937228Y482313D01*
X937228Y484454D02*
X932212Y484454D01*
D10*
X142750Y614800D03*
X142750Y619800D03*
X142750Y624800D03*
X142750Y629800D03*
X134500Y632800D03*
X129500Y632800D03*
X124500Y632800D03*
X119500Y632800D03*
X111250Y629800D03*
X111250Y624800D03*
X111250Y619800D03*
X111250Y614800D03*
X119500Y611800D03*
X124500Y611800D03*
X129500Y611800D03*
X134500Y611800D03*
D11*
X190500Y541020D03*
X165100Y541020D03*
X139700Y541020D03*
X114300Y541020D03*
X88900Y541020D03*
X63500Y541020D03*
D12*
X48260Y647700D03*
X245110Y537210D03*
D13*
X25400Y553720D03*
X228600Y553720D03*
D14*
X94012Y622252D02*
X94012Y627268D01*
X99028Y627268D01*
X99028Y622252D01*
X94012Y622252D01*
X94012Y624393D02*
X99028Y624393D01*
X99028Y626534D02*
X94012Y626534D01*
X94012Y617268D02*
X94012Y612252D01*
X94012Y617268D02*
X99028Y617268D01*
X99028Y612252D01*
X94012Y612252D01*
X94012Y614393D02*
X99028Y614393D01*
X99028Y616534D02*
X94012Y616534D01*
X154972Y622252D02*
X154972Y627268D01*
X159988Y627268D01*
X159988Y622252D01*
X154972Y622252D01*
X154972Y624393D02*
X159988Y624393D01*
X159988Y626534D02*
X154972Y626534D01*
X154972Y617268D02*
X154972Y612252D01*
X154972Y617268D02*
X159988Y617268D01*
X159988Y612252D01*
X154972Y612252D01*
X154972Y614393D02*
X159988Y614393D01*
X159988Y616534D02*
X154972Y616534D01*
D10*
X401830Y614800D03*
X401830Y619800D03*
X401830Y624800D03*
X401830Y629800D03*
X393580Y632800D03*
X388580Y632800D03*
X383580Y632800D03*
X378580Y632800D03*
X370330Y629800D03*
X370330Y624800D03*
X370330Y619800D03*
X370330Y614800D03*
X378580Y611800D03*
X383580Y611800D03*
X388580Y611800D03*
X393580Y611800D03*
D11*
X449580Y541020D03*
X424180Y541020D03*
X398780Y541020D03*
X373380Y541020D03*
X347980Y541020D03*
X322580Y541020D03*
D12*
X307340Y647700D03*
X504190Y537210D03*
D13*
X284480Y553720D03*
X487680Y553720D03*
D14*
X353092Y622252D02*
X353092Y627268D01*
X358108Y627268D01*
X358108Y622252D01*
X353092Y622252D01*
X353092Y624393D02*
X358108Y624393D01*
X358108Y626534D02*
X353092Y626534D01*
X353092Y617268D02*
X353092Y612252D01*
X353092Y617268D02*
X358108Y617268D01*
X358108Y612252D01*
X353092Y612252D01*
X353092Y614393D02*
X358108Y614393D01*
X358108Y616534D02*
X353092Y616534D01*
X414052Y622252D02*
X414052Y627268D01*
X419068Y627268D01*
X419068Y622252D01*
X414052Y622252D01*
X414052Y624393D02*
X419068Y624393D01*
X419068Y626534D02*
X414052Y626534D01*
X414052Y617268D02*
X414052Y612252D01*
X414052Y617268D02*
X419068Y617268D01*
X419068Y612252D01*
X414052Y612252D01*
X414052Y614393D02*
X419068Y614393D01*
X419068Y616534D02*
X414052Y616534D01*
D10*
X660910Y614800D03*
X660910Y619800D03*
X660910Y624800D03*
X660910Y629800D03*
X652660Y632800D03*
X647660Y632800D03*
X642660Y632800D03*
X637660Y632800D03*
X629410Y629800D03*
X629410Y624800D03*
X629410Y619800D03*
X629410Y614800D03*
X637660Y611800D03*
X642660Y611800D03*
X647660Y611800D03*
X652660Y611800D03*
D11*
X708660Y541020D03*
X683260Y541020D03*
X657860Y541020D03*
X632460Y541020D03*
X607060Y541020D03*
X581660Y541020D03*
D12*
X566420Y647700D03*
X763270Y537210D03*
D13*
X543560Y553720D03*
X746760Y553720D03*
D14*
X612172Y622252D02*
X612172Y627268D01*
X617188Y627268D01*
X617188Y622252D01*
X612172Y622252D01*
X612172Y624393D02*
X617188Y624393D01*
X617188Y626534D02*
X612172Y626534D01*
X612172Y617268D02*
X612172Y612252D01*
X612172Y617268D02*
X617188Y617268D01*
X617188Y612252D01*
X612172Y612252D01*
X612172Y614393D02*
X617188Y614393D01*
X617188Y616534D02*
X612172Y616534D01*
X673132Y622252D02*
X673132Y627268D01*
X678148Y627268D01*
X678148Y622252D01*
X673132Y622252D01*
X673132Y624393D02*
X678148Y624393D01*
X678148Y626534D02*
X673132Y626534D01*
X673132Y617268D02*
X673132Y612252D01*
X673132Y617268D02*
X678148Y617268D01*
X678148Y612252D01*
X673132Y612252D01*
X673132Y614393D02*
X678148Y614393D01*
X678148Y616534D02*
X673132Y616534D01*
D10*
X919990Y614800D03*
X919990Y619800D03*
X919990Y624800D03*
X919990Y629800D03*
X911740Y632800D03*
X906740Y632800D03*
X901740Y632800D03*
X896740Y632800D03*
X888490Y629800D03*
X888490Y624800D03*
X888490Y619800D03*
X888490Y614800D03*
X896740Y611800D03*
X901740Y611800D03*
X906740Y611800D03*
X911740Y611800D03*
D11*
X967740Y541020D03*
X942340Y541020D03*
X916940Y541020D03*
X891540Y541020D03*
X866140Y541020D03*
X840740Y541020D03*
D12*
X825500Y647700D03*
X1022350Y537210D03*
D13*
X802640Y553720D03*
X1005840Y553720D03*
D14*
X871252Y622252D02*
X871252Y627268D01*
X876268Y627268D01*
X876268Y622252D01*
X871252Y622252D01*
X871252Y624393D02*
X876268Y624393D01*
X876268Y626534D02*
X871252Y626534D01*
X871252Y617268D02*
X871252Y612252D01*
X871252Y617268D02*
X876268Y617268D01*
X876268Y612252D01*
X871252Y612252D01*
X871252Y614393D02*
X876268Y614393D01*
X876268Y616534D02*
X871252Y616534D01*
X932212Y622252D02*
X932212Y627268D01*
X937228Y627268D01*
X937228Y622252D01*
X932212Y622252D01*
X932212Y624393D02*
X937228Y624393D01*
X937228Y626534D02*
X932212Y626534D01*
X932212Y617268D02*
X932212Y612252D01*
X932212Y617268D02*
X937228Y617268D01*
X937228Y612252D01*
X932212Y612252D01*
X932212Y614393D02*
X937228Y614393D01*
X937228Y616534D02*
X932212Y616534D01*
D10*
X142750Y746880D03*
X142750Y751880D03*
X142750Y756880D03*
X142750Y761880D03*
X134500Y764880D03*
X129500Y764880D03*
X124500Y764880D03*
X119500Y764880D03*
X111250Y761880D03*
X111250Y756880D03*
X111250Y751880D03*
X111250Y746880D03*
X119500Y743880D03*
X124500Y743880D03*
X129500Y743880D03*
X134500Y743880D03*
D11*
X190500Y673100D03*
X165100Y673100D03*
X139700Y673100D03*
X114300Y673100D03*
X88900Y673100D03*
X63500Y673100D03*
D12*
X48260Y779780D03*
X245110Y669290D03*
D13*
X25400Y685800D03*
X228600Y685800D03*
D14*
X94012Y754332D02*
X94012Y759348D01*
X99028Y759348D01*
X99028Y754332D01*
X94012Y754332D01*
X94012Y756473D02*
X99028Y756473D01*
X99028Y758614D02*
X94012Y758614D01*
X94012Y749348D02*
X94012Y744332D01*
X94012Y749348D02*
X99028Y749348D01*
X99028Y744332D01*
X94012Y744332D01*
X94012Y746473D02*
X99028Y746473D01*
X99028Y748614D02*
X94012Y748614D01*
X154972Y754332D02*
X154972Y759348D01*
X159988Y759348D01*
X159988Y754332D01*
X154972Y754332D01*
X154972Y756473D02*
X159988Y756473D01*
X159988Y758614D02*
X154972Y758614D01*
X154972Y749348D02*
X154972Y744332D01*
X154972Y749348D02*
X159988Y749348D01*
X159988Y744332D01*
X154972Y744332D01*
X154972Y746473D02*
X159988Y746473D01*
X159988Y748614D02*
X154972Y748614D01*
D10*
X401830Y746880D03*
X401830Y751880D03*
X401830Y756880D03*
X401830Y761880D03*
X393580Y764880D03*
X388580Y764880D03*
X383580Y764880D03*
X378580Y764880D03*
X370330Y761880D03*
X370330Y756880D03*
X370330Y751880D03*
X370330Y746880D03*
X378580Y743880D03*
X383580Y743880D03*
X388580Y743880D03*
X393580Y743880D03*
D11*
X449580Y673100D03*
X424180Y673100D03*
X398780Y673100D03*
X373380Y673100D03*
X347980Y673100D03*
X322580Y673100D03*
D12*
X307340Y779780D03*
X504190Y669290D03*
D13*
X284480Y685800D03*
X487680Y685800D03*
D14*
X353092Y754332D02*
X353092Y759348D01*
X358108Y759348D01*
X358108Y754332D01*
X353092Y754332D01*
X353092Y756473D02*
X358108Y756473D01*
X358108Y758614D02*
X353092Y758614D01*
X353092Y749348D02*
X353092Y744332D01*
X353092Y749348D02*
X358108Y749348D01*
X358108Y744332D01*
X353092Y744332D01*
X353092Y746473D02*
X358108Y746473D01*
X358108Y748614D02*
X353092Y748614D01*
X414052Y754332D02*
X414052Y759348D01*
X419068Y759348D01*
X419068Y754332D01*
X414052Y754332D01*
X414052Y756473D02*
X419068Y756473D01*
X419068Y758614D02*
X414052Y758614D01*
X414052Y749348D02*
X414052Y744332D01*
X414052Y749348D02*
X419068Y749348D01*
X419068Y744332D01*
X414052Y744332D01*
X414052Y746473D02*
X419068Y746473D01*
X419068Y748614D02*
X414052Y748614D01*
D10*
X660910Y746880D03*
X660910Y751880D03*
X660910Y756880D03*
X660910Y761880D03*
X652660Y764880D03*
X647660Y764880D03*
X642660Y764880D03*
X637660Y764880D03*
X629410Y761880D03*
X629410Y756880D03*
X629410Y751880D03*
X629410Y746880D03*
X637660Y743880D03*
X642660Y743880D03*
X647660Y743880D03*
X652660Y743880D03*
D11*
X708660Y673100D03*
X683260Y673100D03*
X657860Y673100D03*
X632460Y673100D03*
X607060Y673100D03*
X581660Y673100D03*
D12*
X566420Y779780D03*
X763270Y669290D03*
D13*
X543560Y685800D03*
X746760Y685800D03*
D14*
X612172Y754332D02*
X612172Y759348D01*
X617188Y759348D01*
X617188Y754332D01*
X612172Y754332D01*
X612172Y756473D02*
X617188Y756473D01*
X617188Y758614D02*
X612172Y758614D01*
X612172Y749348D02*
X612172Y744332D01*
X612172Y749348D02*
X617188Y749348D01*
X617188Y744332D01*
X612172Y744332D01*
X612172Y746473D02*
X617188Y746473D01*
X617188Y748614D02*
X612172Y748614D01*
X673132Y754332D02*
X673132Y759348D01*
X678148Y759348D01*
X678148Y754332D01*
X673132Y754332D01*
X673132Y756473D02*
X678148Y756473D01*
X678148Y758614D02*
X673132Y758614D01*
X673132Y749348D02*
X673132Y744332D01*
X673132Y749348D02*
X678148Y749348D01*
X678148Y744332D01*
X673132Y744332D01*
X673132Y746473D02*
X678148Y746473D01*
X678148Y748614D02*
X673132Y748614D01*
D10*
X919990Y746880D03*
X919990Y751880D03*
X919990Y756880D03*
X919990Y761880D03*
X911740Y764880D03*
X906740Y764880D03*
X901740Y764880D03*
X896740Y764880D03*
X888490Y761880D03*
X888490Y756880D03*
X888490Y751880D03*
X888490Y746880D03*
X896740Y743880D03*
X901740Y743880D03*
X906740Y743880D03*
X911740Y743880D03*
D11*
X967740Y673100D03*
X942340Y673100D03*
X916940Y673100D03*
X891540Y673100D03*
X866140Y673100D03*
X840740Y673100D03*
D12*
X825500Y779780D03*
X1022350Y669290D03*
D13*
X802640Y685800D03*
X1005840Y685800D03*
D14*
X871252Y754332D02*
X871252Y759348D01*
X876268Y759348D01*
X876268Y754332D01*
X871252Y754332D01*
X871252Y756473D02*
X876268Y756473D01*
X876268Y758614D02*
X871252Y758614D01*
X871252Y749348D02*
X871252Y744332D01*
X871252Y749348D02*
X876268Y749348D01*
X876268Y744332D01*
X871252Y744332D01*
X871252Y746473D02*
X876268Y746473D01*
X876268Y748614D02*
X871252Y748614D01*
X932212Y754332D02*
X932212Y759348D01*
X937228Y759348D01*
X937228Y754332D01*
X932212Y754332D01*
X932212Y756473D02*
X937228Y756473D01*
X937228Y758614D02*
X932212Y758614D01*
X932212Y749348D02*
X932212Y744332D01*
X932212Y749348D02*
X937228Y749348D01*
X937228Y744332D01*
X932212Y744332D01*
X932212Y746473D02*
X937228Y746473D01*
X937228Y748614D02*
X932212Y748614D01*
D10*
X142750Y878960D03*
X142750Y883960D03*
X142750Y888960D03*
X142750Y893960D03*
X134500Y896960D03*
X129500Y896960D03*
X124500Y896960D03*
X119500Y896960D03*
X111250Y893960D03*
X111250Y888960D03*
X111250Y883960D03*
X111250Y878960D03*
X119500Y875960D03*
X124500Y875960D03*
X129500Y875960D03*
X134500Y875960D03*
D11*
X190500Y805180D03*
X165100Y805180D03*
X139700Y805180D03*
X114300Y805180D03*
X88900Y805180D03*
X63500Y805180D03*
D12*
X48260Y911860D03*
X245110Y801370D03*
D13*
X25400Y817880D03*
X228600Y817880D03*
D14*
X94012Y886412D02*
X94012Y891428D01*
X99028Y891428D01*
X99028Y886412D01*
X94012Y886412D01*
X94012Y888553D02*
X99028Y888553D01*
X99028Y890694D02*
X94012Y890694D01*
X94012Y881428D02*
X94012Y876412D01*
X94012Y881428D02*
X99028Y881428D01*
X99028Y876412D01*
X94012Y876412D01*
X94012Y878553D02*
X99028Y878553D01*
X99028Y880694D02*
X94012Y880694D01*
X154972Y886412D02*
X154972Y891428D01*
X159988Y891428D01*
X159988Y886412D01*
X154972Y886412D01*
X154972Y888553D02*
X159988Y888553D01*
X159988Y890694D02*
X154972Y890694D01*
X154972Y881428D02*
X154972Y876412D01*
X154972Y881428D02*
X159988Y881428D01*
X159988Y876412D01*
X154972Y876412D01*
X154972Y878553D02*
X159988Y878553D01*
X159988Y880694D02*
X154972Y880694D01*
D10*
X401830Y878960D03*
X401830Y883960D03*
X401830Y888960D03*
X401830Y893960D03*
X393580Y896960D03*
X388580Y896960D03*
X383580Y896960D03*
X378580Y896960D03*
X370330Y893960D03*
X370330Y888960D03*
X370330Y883960D03*
X370330Y878960D03*
X378580Y875960D03*
X383580Y875960D03*
X388580Y875960D03*
X393580Y875960D03*
D11*
X449580Y805180D03*
X424180Y805180D03*
X398780Y805180D03*
X373380Y805180D03*
X347980Y805180D03*
X322580Y805180D03*
D12*
X307340Y911860D03*
X504190Y801370D03*
D13*
X284480Y817880D03*
X487680Y817880D03*
D14*
X353092Y886412D02*
X353092Y891428D01*
X358108Y891428D01*
X358108Y886412D01*
X353092Y886412D01*
X353092Y888553D02*
X358108Y888553D01*
X358108Y890694D02*
X353092Y890694D01*
X353092Y881428D02*
X353092Y876412D01*
X353092Y881428D02*
X358108Y881428D01*
X358108Y876412D01*
X353092Y876412D01*
X353092Y878553D02*
X358108Y878553D01*
X358108Y880694D02*
X353092Y880694D01*
X414052Y886412D02*
X414052Y891428D01*
X419068Y891428D01*
X419068Y886412D01*
X414052Y886412D01*
X414052Y888553D02*
X419068Y888553D01*
X419068Y890694D02*
X414052Y890694D01*
X414052Y881428D02*
X414052Y876412D01*
X414052Y881428D02*
X419068Y881428D01*
X419068Y876412D01*
X414052Y876412D01*
X414052Y878553D02*
X419068Y878553D01*
X419068Y880694D02*
X414052Y880694D01*
D10*
X660910Y878960D03*
X660910Y883960D03*
X660910Y888960D03*
X660910Y893960D03*
X652660Y896960D03*
X647660Y896960D03*
X642660Y896960D03*
X637660Y896960D03*
X629410Y893960D03*
X629410Y888960D03*
X629410Y883960D03*
X629410Y878960D03*
X637660Y875960D03*
X642660Y875960D03*
X647660Y875960D03*
X652660Y875960D03*
D11*
X708660Y805180D03*
X683260Y805180D03*
X657860Y805180D03*
X632460Y805180D03*
X607060Y805180D03*
X581660Y805180D03*
D12*
X566420Y911860D03*
X763270Y801370D03*
D13*
X543560Y817880D03*
X746760Y817880D03*
D14*
X612172Y886412D02*
X612172Y891428D01*
X617188Y891428D01*
X617188Y886412D01*
X612172Y886412D01*
X612172Y888553D02*
X617188Y888553D01*
X617188Y890694D02*
X612172Y890694D01*
X612172Y881428D02*
X612172Y876412D01*
X612172Y881428D02*
X617188Y881428D01*
X617188Y876412D01*
X612172Y876412D01*
X612172Y878553D02*
X617188Y878553D01*
X617188Y880694D02*
X612172Y880694D01*
X673132Y886412D02*
X673132Y891428D01*
X678148Y891428D01*
X678148Y886412D01*
X673132Y886412D01*
X673132Y888553D02*
X678148Y888553D01*
X678148Y890694D02*
X673132Y890694D01*
X673132Y881428D02*
X673132Y876412D01*
X673132Y881428D02*
X678148Y881428D01*
X678148Y876412D01*
X673132Y876412D01*
X673132Y878553D02*
X678148Y878553D01*
X678148Y880694D02*
X673132Y880694D01*
D10*
X919990Y878960D03*
X919990Y883960D03*
X919990Y888960D03*
X919990Y893960D03*
X911740Y896960D03*
X906740Y896960D03*
X901740Y896960D03*
X896740Y896960D03*
X888490Y893960D03*
X888490Y888960D03*
X888490Y883960D03*
X888490Y878960D03*
X896740Y875960D03*
X901740Y875960D03*
X906740Y875960D03*
X911740Y875960D03*
D11*
X967740Y805180D03*
X942340Y805180D03*
X916940Y805180D03*
X891540Y805180D03*
X866140Y805180D03*
X840740Y805180D03*
D12*
X825500Y911860D03*
X1022350Y801370D03*
D13*
X802640Y817880D03*
X1005840Y817880D03*
D14*
X871252Y886412D02*
X871252Y891428D01*
X876268Y891428D01*
X876268Y886412D01*
X871252Y886412D01*
X871252Y888553D02*
X876268Y888553D01*
X876268Y890694D02*
X871252Y890694D01*
X871252Y881428D02*
X871252Y876412D01*
X871252Y881428D02*
X876268Y881428D01*
X876268Y876412D01*
X871252Y876412D01*
X871252Y878553D02*
X876268Y878553D01*
X876268Y880694D02*
X871252Y880694D01*
X932212Y886412D02*
X932212Y891428D01*
X937228Y891428D01*
X937228Y886412D01*
X932212Y886412D01*
X932212Y888553D02*
X937228Y888553D01*
X937228Y890694D02*
X932212Y890694D01*
X932212Y881428D02*
X932212Y876412D01*
X932212Y881428D02*
X937228Y881428D01*
X937228Y876412D01*
X932212Y876412D01*
X932212Y878553D02*
X937228Y878553D01*
X937228Y880694D02*
X932212Y880694D01*
D10*
X142750Y1011040D03*
X142750Y1016040D03*
X142750Y1021040D03*
X142750Y1026040D03*
X134500Y1029040D03*
X129500Y1029040D03*
X124500Y1029040D03*
X119500Y1029040D03*
X111250Y1026040D03*
X111250Y1021040D03*
X111250Y1016040D03*
X111250Y1011040D03*
X119500Y1008040D03*
X124500Y1008040D03*
X129500Y1008040D03*
X134500Y1008040D03*
D11*
X190500Y937260D03*
X165100Y937260D03*
X139700Y937260D03*
X114300Y937260D03*
X88900Y937260D03*
X63500Y937260D03*
D12*
X48260Y1043940D03*
X245110Y933450D03*
D13*
X25400Y949960D03*
X228600Y949960D03*
D14*
X94012Y1018492D02*
X94012Y1023508D01*
X99028Y1023508D01*
X99028Y1018492D01*
X94012Y1018492D01*
X94012Y1020633D02*
X99028Y1020633D01*
X99028Y1022774D02*
X94012Y1022774D01*
X94012Y1013508D02*
X94012Y1008492D01*
X94012Y1013508D02*
X99028Y1013508D01*
X99028Y1008492D01*
X94012Y1008492D01*
X94012Y1010633D02*
X99028Y1010633D01*
X99028Y1012774D02*
X94012Y1012774D01*
X154972Y1018492D02*
X154972Y1023508D01*
X159988Y1023508D01*
X159988Y1018492D01*
X154972Y1018492D01*
X154972Y1020633D02*
X159988Y1020633D01*
X159988Y1022774D02*
X154972Y1022774D01*
X154972Y1013508D02*
X154972Y1008492D01*
X154972Y1013508D02*
X159988Y1013508D01*
X159988Y1008492D01*
X154972Y1008492D01*
X154972Y1010633D02*
X159988Y1010633D01*
X159988Y1012774D02*
X154972Y1012774D01*
D10*
X401830Y1011040D03*
X401830Y1016040D03*
X401830Y1021040D03*
X401830Y1026040D03*
X393580Y1029040D03*
X388580Y1029040D03*
X383580Y1029040D03*
X378580Y1029040D03*
X370330Y1026040D03*
X370330Y1021040D03*
X370330Y1016040D03*
X370330Y1011040D03*
X378580Y1008040D03*
X383580Y1008040D03*
X388580Y1008040D03*
X393580Y1008040D03*
D11*
X449580Y937260D03*
X424180Y937260D03*
X398780Y937260D03*
X373380Y937260D03*
X347980Y937260D03*
X322580Y937260D03*
D12*
X307340Y1043940D03*
X504190Y933450D03*
D13*
X284480Y949960D03*
X487680Y949960D03*
D14*
X353092Y1018492D02*
X353092Y1023508D01*
X358108Y1023508D01*
X358108Y1018492D01*
X353092Y1018492D01*
X353092Y1020633D02*
X358108Y1020633D01*
X358108Y1022774D02*
X353092Y1022774D01*
X353092Y1013508D02*
X353092Y1008492D01*
X353092Y1013508D02*
X358108Y1013508D01*
X358108Y1008492D01*
X353092Y1008492D01*
X353092Y1010633D02*
X358108Y1010633D01*
X358108Y1012774D02*
X353092Y1012774D01*
X414052Y1018492D02*
X414052Y1023508D01*
X419068Y1023508D01*
X419068Y1018492D01*
X414052Y1018492D01*
X414052Y1020633D02*
X419068Y1020633D01*
X419068Y1022774D02*
X414052Y1022774D01*
X414052Y1013508D02*
X414052Y1008492D01*
X414052Y1013508D02*
X419068Y1013508D01*
X419068Y1008492D01*
X414052Y1008492D01*
X414052Y1010633D02*
X419068Y1010633D01*
X419068Y1012774D02*
X414052Y1012774D01*
D10*
X660910Y1011040D03*
X660910Y1016040D03*
X660910Y1021040D03*
X660910Y1026040D03*
X652660Y1029040D03*
X647660Y1029040D03*
X642660Y1029040D03*
X637660Y1029040D03*
X629410Y1026040D03*
X629410Y1021040D03*
X629410Y1016040D03*
X629410Y1011040D03*
X637660Y1008040D03*
X642660Y1008040D03*
X647660Y1008040D03*
X652660Y1008040D03*
D11*
X708660Y937260D03*
X683260Y937260D03*
X657860Y937260D03*
X632460Y937260D03*
X607060Y937260D03*
X581660Y937260D03*
D12*
X566420Y1043940D03*
X763270Y933450D03*
D13*
X543560Y949960D03*
X746760Y949960D03*
D14*
X612172Y1018492D02*
X612172Y1023508D01*
X617188Y1023508D01*
X617188Y1018492D01*
X612172Y1018492D01*
X612172Y1020633D02*
X617188Y1020633D01*
X617188Y1022774D02*
X612172Y1022774D01*
X612172Y1013508D02*
X612172Y1008492D01*
X612172Y1013508D02*
X617188Y1013508D01*
X617188Y1008492D01*
X612172Y1008492D01*
X612172Y1010633D02*
X617188Y1010633D01*
X617188Y1012774D02*
X612172Y1012774D01*
X673132Y1018492D02*
X673132Y1023508D01*
X678148Y1023508D01*
X678148Y1018492D01*
X673132Y1018492D01*
X673132Y1020633D02*
X678148Y1020633D01*
X678148Y1022774D02*
X673132Y1022774D01*
X673132Y1013508D02*
X673132Y1008492D01*
X673132Y1013508D02*
X678148Y1013508D01*
X678148Y1008492D01*
X673132Y1008492D01*
X673132Y1010633D02*
X678148Y1010633D01*
X678148Y1012774D02*
X673132Y1012774D01*
D10*
X919990Y1011040D03*
X919990Y1016040D03*
X919990Y1021040D03*
X919990Y1026040D03*
X911740Y1029040D03*
X906740Y1029040D03*
X901740Y1029040D03*
X896740Y1029040D03*
X888490Y1026040D03*
X888490Y1021040D03*
X888490Y1016040D03*
X888490Y1011040D03*
X896740Y1008040D03*
X901740Y1008040D03*
X906740Y1008040D03*
X911740Y1008040D03*
D11*
X967740Y937260D03*
X942340Y937260D03*
X916940Y937260D03*
X891540Y937260D03*
X866140Y937260D03*
X840740Y937260D03*
D12*
X825500Y1043940D03*
X1022350Y933450D03*
D13*
X802640Y949960D03*
X1005840Y949960D03*
D14*
X871252Y1018492D02*
X871252Y1023508D01*
X876268Y1023508D01*
X876268Y1018492D01*
X871252Y1018492D01*
X871252Y1020633D02*
X876268Y1020633D01*
X876268Y1022774D02*
X871252Y1022774D01*
X871252Y1013508D02*
X871252Y1008492D01*
X871252Y1013508D02*
X876268Y1013508D01*
X876268Y1008492D01*
X871252Y1008492D01*
X871252Y1010633D02*
X876268Y1010633D01*
X876268Y1012774D02*
X871252Y1012774D01*
X932212Y1018492D02*
X932212Y1023508D01*
X937228Y1023508D01*
X937228Y1018492D01*
X932212Y1018492D01*
X932212Y1020633D02*
X937228Y1020633D01*
X937228Y1022774D02*
X932212Y1022774D01*
X932212Y1013508D02*
X932212Y1008492D01*
X932212Y1013508D02*
X937228Y1013508D01*
X937228Y1008492D01*
X932212Y1008492D01*
X932212Y1010633D02*
X937228Y1010633D01*
X937228Y1012774D02*
X932212Y1012774D01*
D10*
X142750Y1143120D03*
X142750Y1148120D03*
X142750Y1153120D03*
X142750Y1158120D03*
X134500Y1161120D03*
X129500Y1161120D03*
X124500Y1161120D03*
X119500Y1161120D03*
X111250Y1158120D03*
X111250Y1153120D03*
X111250Y1148120D03*
X111250Y1143120D03*
X119500Y1140120D03*
X124500Y1140120D03*
X129500Y1140120D03*
X134500Y1140120D03*
D11*
X190500Y1069340D03*
X165100Y1069340D03*
X139700Y1069340D03*
X114300Y1069340D03*
X88900Y1069340D03*
X63500Y1069340D03*
D12*
X48260Y1176020D03*
X245110Y1065530D03*
D13*
X25400Y1082040D03*
X228600Y1082040D03*
D14*
X94012Y1150572D02*
X94012Y1155588D01*
X99028Y1155588D01*
X99028Y1150572D01*
X94012Y1150572D01*
X94012Y1152713D02*
X99028Y1152713D01*
X99028Y1154854D02*
X94012Y1154854D01*
X94012Y1145588D02*
X94012Y1140572D01*
X94012Y1145588D02*
X99028Y1145588D01*
X99028Y1140572D01*
X94012Y1140572D01*
X94012Y1142713D02*
X99028Y1142713D01*
X99028Y1144854D02*
X94012Y1144854D01*
X154972Y1150572D02*
X154972Y1155588D01*
X159988Y1155588D01*
X159988Y1150572D01*
X154972Y1150572D01*
X154972Y1152713D02*
X159988Y1152713D01*
X159988Y1154854D02*
X154972Y1154854D01*
X154972Y1145588D02*
X154972Y1140572D01*
X154972Y1145588D02*
X159988Y1145588D01*
X159988Y1140572D01*
X154972Y1140572D01*
X154972Y1142713D02*
X159988Y1142713D01*
X159988Y1144854D02*
X154972Y1144854D01*
D10*
X401830Y1143120D03*
X401830Y1148120D03*
X401830Y1153120D03*
X401830Y1158120D03*
X393580Y1161120D03*
X388580Y1161120D03*
X383580Y1161120D03*
X378580Y1161120D03*
X370330Y1158120D03*
X370330Y1153120D03*
X370330Y1148120D03*
X370330Y1143120D03*
X378580Y1140120D03*
X383580Y1140120D03*
X388580Y1140120D03*
X393580Y1140120D03*
D11*
X449580Y1069340D03*
X424180Y1069340D03*
X398780Y1069340D03*
X373380Y1069340D03*
X347980Y1069340D03*
X322580Y1069340D03*
D12*
X307340Y1176020D03*
X504190Y1065530D03*
D13*
X284480Y1082040D03*
X487680Y1082040D03*
D14*
X353092Y1150572D02*
X353092Y1155588D01*
X358108Y1155588D01*
X358108Y1150572D01*
X353092Y1150572D01*
X353092Y1152713D02*
X358108Y1152713D01*
X358108Y1154854D02*
X353092Y1154854D01*
X353092Y1145588D02*
X353092Y1140572D01*
X353092Y1145588D02*
X358108Y1145588D01*
X358108Y1140572D01*
X353092Y1140572D01*
X353092Y1142713D02*
X358108Y1142713D01*
X358108Y1144854D02*
X353092Y1144854D01*
X414052Y1150572D02*
X414052Y1155588D01*
X419068Y1155588D01*
X419068Y1150572D01*
X414052Y1150572D01*
X414052Y1152713D02*
X419068Y1152713D01*
X419068Y1154854D02*
X414052Y1154854D01*
X414052Y1145588D02*
X414052Y1140572D01*
X414052Y1145588D02*
X419068Y1145588D01*
X419068Y1140572D01*
X414052Y1140572D01*
X414052Y1142713D02*
X419068Y1142713D01*
X419068Y1144854D02*
X414052Y1144854D01*
D10*
X660910Y1143120D03*
X660910Y1148120D03*
X660910Y1153120D03*
X660910Y1158120D03*
X652660Y1161120D03*
X647660Y1161120D03*
X642660Y1161120D03*
X637660Y1161120D03*
X629410Y1158120D03*
X629410Y1153120D03*
X629410Y1148120D03*
X629410Y1143120D03*
X637660Y1140120D03*
X642660Y1140120D03*
X647660Y1140120D03*
X652660Y1140120D03*
D11*
X708660Y1069340D03*
X683260Y1069340D03*
X657860Y1069340D03*
X632460Y1069340D03*
X607060Y1069340D03*
X581660Y1069340D03*
D12*
X566420Y1176020D03*
X763270Y1065530D03*
D13*
X543560Y1082040D03*
X746760Y1082040D03*
D14*
X612172Y1150572D02*
X612172Y1155588D01*
X617188Y1155588D01*
X617188Y1150572D01*
X612172Y1150572D01*
X612172Y1152713D02*
X617188Y1152713D01*
X617188Y1154854D02*
X612172Y1154854D01*
X612172Y1145588D02*
X612172Y1140572D01*
X612172Y1145588D02*
X617188Y1145588D01*
X617188Y1140572D01*
X612172Y1140572D01*
X612172Y1142713D02*
X617188Y1142713D01*
X617188Y1144854D02*
X612172Y1144854D01*
X673132Y1150572D02*
X673132Y1155588D01*
X678148Y1155588D01*
X678148Y1150572D01*
X673132Y1150572D01*
X673132Y1152713D02*
X678148Y1152713D01*
X678148Y1154854D02*
X673132Y1154854D01*
X673132Y1145588D02*
X673132Y1140572D01*
X673132Y1145588D02*
X678148Y1145588D01*
X678148Y1140572D01*
X673132Y1140572D01*
X673132Y1142713D02*
X678148Y1142713D01*
X678148Y1144854D02*
X673132Y1144854D01*
D10*
X919990Y1143120D03*
X919990Y1148120D03*
X919990Y1153120D03*
X919990Y1158120D03*
X911740Y1161120D03*
X906740Y1161120D03*
X901740Y1161120D03*
X896740Y1161120D03*
X888490Y1158120D03*
X888490Y1153120D03*
X888490Y1148120D03*
X888490Y1143120D03*
X896740Y1140120D03*
X901740Y1140120D03*
X906740Y1140120D03*
X911740Y1140120D03*
D11*
X967740Y1069340D03*
X942340Y1069340D03*
X916940Y1069340D03*
X891540Y1069340D03*
X866140Y1069340D03*
X840740Y1069340D03*
D12*
X825500Y1176020D03*
X1022350Y1065530D03*
D13*
X802640Y1082040D03*
X1005840Y1082040D03*
D14*
X871252Y1150572D02*
X871252Y1155588D01*
X876268Y1155588D01*
X876268Y1150572D01*
X871252Y1150572D01*
X871252Y1152713D02*
X876268Y1152713D01*
X876268Y1154854D02*
X871252Y1154854D01*
X871252Y1145588D02*
X871252Y1140572D01*
X871252Y1145588D02*
X876268Y1145588D01*
X876268Y1140572D01*
X871252Y1140572D01*
X871252Y1142713D02*
X876268Y1142713D01*
X876268Y1144854D02*
X871252Y1144854D01*
X932212Y1150572D02*
X932212Y1155588D01*
X937228Y1155588D01*
X937228Y1150572D01*
X932212Y1150572D01*
X932212Y1152713D02*
X937228Y1152713D01*
X937228Y1154854D02*
X932212Y1154854D01*
X932212Y1145588D02*
X932212Y1140572D01*
X932212Y1145588D02*
X937228Y1145588D01*
X937228Y1140572D01*
X932212Y1140572D01*
X932212Y1142713D02*
X937228Y1142713D01*
X937228Y1144854D02*
X932212Y1144854D01*
D10*
X142750Y1275200D03*
X142750Y1280200D03*
X142750Y1285200D03*
X142750Y1290200D03*
X134500Y1293200D03*
X129500Y1293200D03*
X124500Y1293200D03*
X119500Y1293200D03*
X111250Y1290200D03*
X111250Y1285200D03*
X111250Y1280200D03*
X111250Y1275200D03*
X119500Y1272200D03*
X124500Y1272200D03*
X129500Y1272200D03*
X134500Y1272200D03*
D11*
X190500Y1201420D03*
X165100Y1201420D03*
X139700Y1201420D03*
X114300Y1201420D03*
X88900Y1201420D03*
X63500Y1201420D03*
D12*
X48260Y1308100D03*
X245110Y1197610D03*
D13*
X25400Y1214120D03*
X228600Y1214120D03*
D14*
X94012Y1282652D02*
X94012Y1287668D01*
X99028Y1287668D01*
X99028Y1282652D01*
X94012Y1282652D01*
X94012Y1284793D02*
X99028Y1284793D01*
X99028Y1286934D02*
X94012Y1286934D01*
X94012Y1277668D02*
X94012Y1272652D01*
X94012Y1277668D02*
X99028Y1277668D01*
X99028Y1272652D01*
X94012Y1272652D01*
X94012Y1274793D02*
X99028Y1274793D01*
X99028Y1276934D02*
X94012Y1276934D01*
X154972Y1282652D02*
X154972Y1287668D01*
X159988Y1287668D01*
X159988Y1282652D01*
X154972Y1282652D01*
X154972Y1284793D02*
X159988Y1284793D01*
X159988Y1286934D02*
X154972Y1286934D01*
X154972Y1277668D02*
X154972Y1272652D01*
X154972Y1277668D02*
X159988Y1277668D01*
X159988Y1272652D01*
X154972Y1272652D01*
X154972Y1274793D02*
X159988Y1274793D01*
X159988Y1276934D02*
X154972Y1276934D01*
D10*
X401830Y1275200D03*
X401830Y1280200D03*
X401830Y1285200D03*
X401830Y1290200D03*
X393580Y1293200D03*
X388580Y1293200D03*
X383580Y1293200D03*
X378580Y1293200D03*
X370330Y1290200D03*
X370330Y1285200D03*
X370330Y1280200D03*
X370330Y1275200D03*
X378580Y1272200D03*
X383580Y1272200D03*
X388580Y1272200D03*
X393580Y1272200D03*
D11*
X449580Y1201420D03*
X424180Y1201420D03*
X398780Y1201420D03*
X373380Y1201420D03*
X347980Y1201420D03*
X322580Y1201420D03*
D12*
X307340Y1308100D03*
X504190Y1197610D03*
D13*
X284480Y1214120D03*
X487680Y1214120D03*
D14*
X353092Y1282652D02*
X353092Y1287668D01*
X358108Y1287668D01*
X358108Y1282652D01*
X353092Y1282652D01*
X353092Y1284793D02*
X358108Y1284793D01*
X358108Y1286934D02*
X353092Y1286934D01*
X353092Y1277668D02*
X353092Y1272652D01*
X353092Y1277668D02*
X358108Y1277668D01*
X358108Y1272652D01*
X353092Y1272652D01*
X353092Y1274793D02*
X358108Y1274793D01*
X358108Y1276934D02*
X353092Y1276934D01*
X414052Y1282652D02*
X414052Y1287668D01*
X419068Y1287668D01*
X419068Y1282652D01*
X414052Y1282652D01*
X414052Y1284793D02*
X419068Y1284793D01*
X419068Y1286934D02*
X414052Y1286934D01*
X414052Y1277668D02*
X414052Y1272652D01*
X414052Y1277668D02*
X419068Y1277668D01*
X419068Y1272652D01*
X414052Y1272652D01*
X414052Y1274793D02*
X419068Y1274793D01*
X419068Y1276934D02*
X414052Y1276934D01*
D10*
X660910Y1275200D03*
X660910Y1280200D03*
X660910Y1285200D03*
X660910Y1290200D03*
X652660Y1293200D03*
X647660Y1293200D03*
X642660Y1293200D03*
X637660Y1293200D03*
X629410Y1290200D03*
X629410Y1285200D03*
X629410Y1280200D03*
X629410Y1275200D03*
X637660Y1272200D03*
X642660Y1272200D03*
X647660Y1272200D03*
X652660Y1272200D03*
D11*
X708660Y1201420D03*
X683260Y1201420D03*
X657860Y1201420D03*
X632460Y1201420D03*
X607060Y1201420D03*
X581660Y1201420D03*
D12*
X566420Y1308100D03*
X763270Y1197610D03*
D13*
X543560Y1214120D03*
X746760Y1214120D03*
D14*
X612172Y1282652D02*
X612172Y1287668D01*
X617188Y1287668D01*
X617188Y1282652D01*
X612172Y1282652D01*
X612172Y1284793D02*
X617188Y1284793D01*
X617188Y1286934D02*
X612172Y1286934D01*
X612172Y1277668D02*
X612172Y1272652D01*
X612172Y1277668D02*
X617188Y1277668D01*
X617188Y1272652D01*
X612172Y1272652D01*
X612172Y1274793D02*
X617188Y1274793D01*
X617188Y1276934D02*
X612172Y1276934D01*
X673132Y1282652D02*
X673132Y1287668D01*
X678148Y1287668D01*
X678148Y1282652D01*
X673132Y1282652D01*
X673132Y1284793D02*
X678148Y1284793D01*
X678148Y1286934D02*
X673132Y1286934D01*
X673132Y1277668D02*
X673132Y1272652D01*
X673132Y1277668D02*
X678148Y1277668D01*
X678148Y1272652D01*
X673132Y1272652D01*
X673132Y1274793D02*
X678148Y1274793D01*
X678148Y1276934D02*
X673132Y1276934D01*
D10*
X919990Y1275200D03*
X919990Y1280200D03*
X919990Y1285200D03*
X919990Y1290200D03*
X911740Y1293200D03*
X906740Y1293200D03*
X901740Y1293200D03*
X896740Y1293200D03*
X888490Y1290200D03*
X888490Y1285200D03*
X888490Y1280200D03*
X888490Y1275200D03*
X896740Y1272200D03*
X901740Y1272200D03*
X906740Y1272200D03*
X911740Y1272200D03*
D11*
X967740Y1201420D03*
X942340Y1201420D03*
X916940Y1201420D03*
X891540Y1201420D03*
X866140Y1201420D03*
X840740Y1201420D03*
D12*
X825500Y1308100D03*
X1022350Y1197610D03*
D13*
X802640Y1214120D03*
X1005840Y1214120D03*
D14*
X871252Y1282652D02*
X871252Y1287668D01*
X876268Y1287668D01*
X876268Y1282652D01*
X871252Y1282652D01*
X871252Y1284793D02*
X876268Y1284793D01*
X876268Y1286934D02*
X871252Y1286934D01*
X871252Y1277668D02*
X871252Y1272652D01*
X871252Y1277668D02*
X876268Y1277668D01*
X876268Y1272652D01*
X871252Y1272652D01*
X871252Y1274793D02*
X876268Y1274793D01*
X876268Y1276934D02*
X871252Y1276934D01*
X932212Y1282652D02*
X932212Y1287668D01*
X937228Y1287668D01*
X937228Y1282652D01*
X932212Y1282652D01*
X932212Y1284793D02*
X937228Y1284793D01*
X937228Y1286934D02*
X932212Y1286934D01*
X932212Y1277668D02*
X932212Y1272652D01*
X932212Y1277668D02*
X937228Y1277668D01*
X937228Y1272652D01*
X932212Y1272652D01*
X932212Y1274793D02*
X937228Y1274793D01*
X937228Y1276934D02*
X932212Y1276934D01*
D10*
X142750Y1407280D03*
X142750Y1412280D03*
X142750Y1417280D03*
X142750Y1422280D03*
X134500Y1425280D03*
X129500Y1425280D03*
X124500Y1425280D03*
X119500Y1425280D03*
X111250Y1422280D03*
X111250Y1417280D03*
X111250Y1412280D03*
X111250Y1407280D03*
X119500Y1404280D03*
X124500Y1404280D03*
X129500Y1404280D03*
X134500Y1404280D03*
D11*
X190500Y1333500D03*
X165100Y1333500D03*
X139700Y1333500D03*
X114300Y1333500D03*
X88900Y1333500D03*
X63500Y1333500D03*
D12*
X48260Y1440180D03*
X245110Y1329690D03*
D13*
X25400Y1346200D03*
X228600Y1346200D03*
D14*
X94012Y1414732D02*
X94012Y1419748D01*
X99028Y1419748D01*
X99028Y1414732D01*
X94012Y1414732D01*
X94012Y1416873D02*
X99028Y1416873D01*
X99028Y1419014D02*
X94012Y1419014D01*
X94012Y1409748D02*
X94012Y1404732D01*
X94012Y1409748D02*
X99028Y1409748D01*
X99028Y1404732D01*
X94012Y1404732D01*
X94012Y1406873D02*
X99028Y1406873D01*
X99028Y1409014D02*
X94012Y1409014D01*
X154972Y1414732D02*
X154972Y1419748D01*
X159988Y1419748D01*
X159988Y1414732D01*
X154972Y1414732D01*
X154972Y1416873D02*
X159988Y1416873D01*
X159988Y1419014D02*
X154972Y1419014D01*
X154972Y1409748D02*
X154972Y1404732D01*
X154972Y1409748D02*
X159988Y1409748D01*
X159988Y1404732D01*
X154972Y1404732D01*
X154972Y1406873D02*
X159988Y1406873D01*
X159988Y1409014D02*
X154972Y1409014D01*
D10*
X401830Y1407280D03*
X401830Y1412280D03*
X401830Y1417280D03*
X401830Y1422280D03*
X393580Y1425280D03*
X388580Y1425280D03*
X383580Y1425280D03*
X378580Y1425280D03*
X370330Y1422280D03*
X370330Y1417280D03*
X370330Y1412280D03*
X370330Y1407280D03*
X378580Y1404280D03*
X383580Y1404280D03*
X388580Y1404280D03*
X393580Y1404280D03*
D11*
X449580Y1333500D03*
X424180Y1333500D03*
X398780Y1333500D03*
X373380Y1333500D03*
X347980Y1333500D03*
X322580Y1333500D03*
D12*
X307340Y1440180D03*
X504190Y1329690D03*
D13*
X284480Y1346200D03*
X487680Y1346200D03*
D14*
X353092Y1414732D02*
X353092Y1419748D01*
X358108Y1419748D01*
X358108Y1414732D01*
X353092Y1414732D01*
X353092Y1416873D02*
X358108Y1416873D01*
X358108Y1419014D02*
X353092Y1419014D01*
X353092Y1409748D02*
X353092Y1404732D01*
X353092Y1409748D02*
X358108Y1409748D01*
X358108Y1404732D01*
X353092Y1404732D01*
X353092Y1406873D02*
X358108Y1406873D01*
X358108Y1409014D02*
X353092Y1409014D01*
X414052Y1414732D02*
X414052Y1419748D01*
X419068Y1419748D01*
X419068Y1414732D01*
X414052Y1414732D01*
X414052Y1416873D02*
X419068Y1416873D01*
X419068Y1419014D02*
X414052Y1419014D01*
X414052Y1409748D02*
X414052Y1404732D01*
X414052Y1409748D02*
X419068Y1409748D01*
X419068Y1404732D01*
X414052Y1404732D01*
X414052Y1406873D02*
X419068Y1406873D01*
X419068Y1409014D02*
X414052Y1409014D01*
D10*
X660910Y1407280D03*
X660910Y1412280D03*
X660910Y1417280D03*
X660910Y1422280D03*
X652660Y1425280D03*
X647660Y1425280D03*
X642660Y1425280D03*
X637660Y1425280D03*
X629410Y1422280D03*
X629410Y1417280D03*
X629410Y1412280D03*
X629410Y1407280D03*
X637660Y1404280D03*
X642660Y1404280D03*
X647660Y1404280D03*
X652660Y1404280D03*
D11*
X708660Y1333500D03*
X683260Y1333500D03*
X657860Y1333500D03*
X632460Y1333500D03*
X607060Y1333500D03*
X581660Y1333500D03*
D12*
X566420Y1440180D03*
X763270Y1329690D03*
D13*
X543560Y1346200D03*
X746760Y1346200D03*
D14*
X612172Y1414732D02*
X612172Y1419748D01*
X617188Y1419748D01*
X617188Y1414732D01*
X612172Y1414732D01*
X612172Y1416873D02*
X617188Y1416873D01*
X617188Y1419014D02*
X612172Y1419014D01*
X612172Y1409748D02*
X612172Y1404732D01*
X612172Y1409748D02*
X617188Y1409748D01*
X617188Y1404732D01*
X612172Y1404732D01*
X612172Y1406873D02*
X617188Y1406873D01*
X617188Y1409014D02*
X612172Y1409014D01*
X673132Y1414732D02*
X673132Y1419748D01*
X678148Y1419748D01*
X678148Y1414732D01*
X673132Y1414732D01*
X673132Y1416873D02*
X678148Y1416873D01*
X678148Y1419014D02*
X673132Y1419014D01*
X673132Y1409748D02*
X673132Y1404732D01*
X673132Y1409748D02*
X678148Y1409748D01*
X678148Y1404732D01*
X673132Y1404732D01*
X673132Y1406873D02*
X678148Y1406873D01*
X678148Y1409014D02*
X673132Y1409014D01*
D10*
X919990Y1407280D03*
X919990Y1412280D03*
X919990Y1417280D03*
X919990Y1422280D03*
X911740Y1425280D03*
X906740Y1425280D03*
X901740Y1425280D03*
X896740Y1425280D03*
X888490Y1422280D03*
X888490Y1417280D03*
X888490Y1412280D03*
X888490Y1407280D03*
X896740Y1404280D03*
X901740Y1404280D03*
X906740Y1404280D03*
X911740Y1404280D03*
D11*
X967740Y1333500D03*
X942340Y1333500D03*
X916940Y1333500D03*
X891540Y1333500D03*
X866140Y1333500D03*
X840740Y1333500D03*
D12*
X825500Y1440180D03*
X1022350Y1329690D03*
D13*
X802640Y1346200D03*
X1005840Y1346200D03*
D14*
X871252Y1414732D02*
X871252Y1419748D01*
X876268Y1419748D01*
X876268Y1414732D01*
X871252Y1414732D01*
X871252Y1416873D02*
X876268Y1416873D01*
X876268Y1419014D02*
X871252Y1419014D01*
X871252Y1409748D02*
X871252Y1404732D01*
X871252Y1409748D02*
X876268Y1409748D01*
X876268Y1404732D01*
X871252Y1404732D01*
X871252Y1406873D02*
X876268Y1406873D01*
X876268Y1409014D02*
X871252Y1409014D01*
X932212Y1414732D02*
X932212Y1419748D01*
X937228Y1419748D01*
X937228Y1414732D01*
X932212Y1414732D01*
X932212Y1416873D02*
X937228Y1416873D01*
X937228Y1419014D02*
X932212Y1419014D01*
X932212Y1409748D02*
X932212Y1404732D01*
X932212Y1409748D02*
X937228Y1409748D01*
X937228Y1404732D01*
X932212Y1404732D01*
X932212Y1406873D02*
X937228Y1406873D01*
X937228Y1409014D02*
X932212Y1409014D01*
D10*
X142750Y1539360D03*
X142750Y1544360D03*
X142750Y1549360D03*
X142750Y1554360D03*
X134500Y1557360D03*
X129500Y1557360D03*
X124500Y1557360D03*
X119500Y1557360D03*
X111250Y1554360D03*
X111250Y1549360D03*
X111250Y1544360D03*
X111250Y1539360D03*
X119500Y1536360D03*
X124500Y1536360D03*
X129500Y1536360D03*
X134500Y1536360D03*
D11*
X190500Y1465580D03*
X165100Y1465580D03*
X139700Y1465580D03*
X114300Y1465580D03*
X88900Y1465580D03*
X63500Y1465580D03*
D12*
X48260Y1572260D03*
X245110Y1461770D03*
D13*
X25400Y1478280D03*
X228600Y1478280D03*
D14*
X94012Y1546812D02*
X94012Y1551828D01*
X99028Y1551828D01*
X99028Y1546812D01*
X94012Y1546812D01*
X94012Y1548953D02*
X99028Y1548953D01*
X99028Y1551094D02*
X94012Y1551094D01*
X94012Y1541828D02*
X94012Y1536812D01*
X94012Y1541828D02*
X99028Y1541828D01*
X99028Y1536812D01*
X94012Y1536812D01*
X94012Y1538953D02*
X99028Y1538953D01*
X99028Y1541094D02*
X94012Y1541094D01*
X154972Y1546812D02*
X154972Y1551828D01*
X159988Y1551828D01*
X159988Y1546812D01*
X154972Y1546812D01*
X154972Y1548953D02*
X159988Y1548953D01*
X159988Y1551094D02*
X154972Y1551094D01*
X154972Y1541828D02*
X154972Y1536812D01*
X154972Y1541828D02*
X159988Y1541828D01*
X159988Y1536812D01*
X154972Y1536812D01*
X154972Y1538953D02*
X159988Y1538953D01*
X159988Y1541094D02*
X154972Y1541094D01*
D10*
X401830Y1539360D03*
X401830Y1544360D03*
X401830Y1549360D03*
X401830Y1554360D03*
X393580Y1557360D03*
X388580Y1557360D03*
X383580Y1557360D03*
X378580Y1557360D03*
X370330Y1554360D03*
X370330Y1549360D03*
X370330Y1544360D03*
X370330Y1539360D03*
X378580Y1536360D03*
X383580Y1536360D03*
X388580Y1536360D03*
X393580Y1536360D03*
D11*
X449580Y1465580D03*
X424180Y1465580D03*
X398780Y1465580D03*
X373380Y1465580D03*
X347980Y1465580D03*
X322580Y1465580D03*
D12*
X307340Y1572260D03*
X504190Y1461770D03*
D13*
X284480Y1478280D03*
X487680Y1478280D03*
D14*
X353092Y1546812D02*
X353092Y1551828D01*
X358108Y1551828D01*
X358108Y1546812D01*
X353092Y1546812D01*
X353092Y1548953D02*
X358108Y1548953D01*
X358108Y1551094D02*
X353092Y1551094D01*
X353092Y1541828D02*
X353092Y1536812D01*
X353092Y1541828D02*
X358108Y1541828D01*
X358108Y1536812D01*
X353092Y1536812D01*
X353092Y1538953D02*
X358108Y1538953D01*
X358108Y1541094D02*
X353092Y1541094D01*
X414052Y1546812D02*
X414052Y1551828D01*
X419068Y1551828D01*
X419068Y1546812D01*
X414052Y1546812D01*
X414052Y1548953D02*
X419068Y1548953D01*
X419068Y1551094D02*
X414052Y1551094D01*
X414052Y1541828D02*
X414052Y1536812D01*
X414052Y1541828D02*
X419068Y1541828D01*
X419068Y1536812D01*
X414052Y1536812D01*
X414052Y1538953D02*
X419068Y1538953D01*
X419068Y1541094D02*
X414052Y1541094D01*
D10*
X660910Y1539360D03*
X660910Y1544360D03*
X660910Y1549360D03*
X660910Y1554360D03*
X652660Y1557360D03*
X647660Y1557360D03*
X642660Y1557360D03*
X637660Y1557360D03*
X629410Y1554360D03*
X629410Y1549360D03*
X629410Y1544360D03*
X629410Y1539360D03*
X637660Y1536360D03*
X642660Y1536360D03*
X647660Y1536360D03*
X652660Y1536360D03*
D11*
X708660Y1465580D03*
X683260Y1465580D03*
X657860Y1465580D03*
X632460Y1465580D03*
X607060Y1465580D03*
X581660Y1465580D03*
D12*
X566420Y1572260D03*
X763270Y1461770D03*
D13*
X543560Y1478280D03*
X746760Y1478280D03*
D14*
X612172Y1546812D02*
X612172Y1551828D01*
X617188Y1551828D01*
X617188Y1546812D01*
X612172Y1546812D01*
X612172Y1548953D02*
X617188Y1548953D01*
X617188Y1551094D02*
X612172Y1551094D01*
X612172Y1541828D02*
X612172Y1536812D01*
X612172Y1541828D02*
X617188Y1541828D01*
X617188Y1536812D01*
X612172Y1536812D01*
X612172Y1538953D02*
X617188Y1538953D01*
X617188Y1541094D02*
X612172Y1541094D01*
X673132Y1546812D02*
X673132Y1551828D01*
X678148Y1551828D01*
X678148Y1546812D01*
X673132Y1546812D01*
X673132Y1548953D02*
X678148Y1548953D01*
X678148Y1551094D02*
X673132Y1551094D01*
X673132Y1541828D02*
X673132Y1536812D01*
X673132Y1541828D02*
X678148Y1541828D01*
X678148Y1536812D01*
X673132Y1536812D01*
X673132Y1538953D02*
X678148Y1538953D01*
X678148Y1541094D02*
X673132Y1541094D01*
D10*
X919990Y1539360D03*
X919990Y1544360D03*
X919990Y1549360D03*
X919990Y1554360D03*
X911740Y1557360D03*
X906740Y1557360D03*
X901740Y1557360D03*
X896740Y1557360D03*
X888490Y1554360D03*
X888490Y1549360D03*
X888490Y1544360D03*
X888490Y1539360D03*
X896740Y1536360D03*
X901740Y1536360D03*
X906740Y1536360D03*
X911740Y1536360D03*
D11*
X967740Y1465580D03*
X942340Y1465580D03*
X916940Y1465580D03*
X891540Y1465580D03*
X866140Y1465580D03*
X840740Y1465580D03*
D12*
X825500Y1572260D03*
X1022350Y1461770D03*
D13*
X802640Y1478280D03*
X1005840Y1478280D03*
D14*
X871252Y1546812D02*
X871252Y1551828D01*
X876268Y1551828D01*
X876268Y1546812D01*
X871252Y1546812D01*
X871252Y1548953D02*
X876268Y1548953D01*
X876268Y1551094D02*
X871252Y1551094D01*
X871252Y1541828D02*
X871252Y1536812D01*
X871252Y1541828D02*
X876268Y1541828D01*
X876268Y1536812D01*
X871252Y1536812D01*
X871252Y1538953D02*
X876268Y1538953D01*
X876268Y1541094D02*
X871252Y1541094D01*
X932212Y1546812D02*
X932212Y1551828D01*
X937228Y1551828D01*
X937228Y1546812D01*
X932212Y1546812D01*
X932212Y1548953D02*
X937228Y1548953D01*
X937228Y1551094D02*
X932212Y1551094D01*
X932212Y1541828D02*
X932212Y1536812D01*
X932212Y1541828D02*
X937228Y1541828D01*
X937228Y1536812D01*
X932212Y1536812D01*
X932212Y1538953D02*
X937228Y1538953D01*
X937228Y1541094D02*
X932212Y1541094D01*
D15*
X-26238Y1553210D03*
X1057478Y1553210D03*
D16*
X-35293Y63500D02*
X-35290Y63722D01*
X-35282Y63944D01*
X-35268Y64166D01*
X-35249Y64388D01*
X-35225Y64608D01*
X-35195Y64829D01*
X-35160Y65048D01*
X-35119Y65267D01*
X-35073Y65484D01*
X-35022Y65700D01*
X-34965Y65915D01*
X-34903Y66129D01*
X-34836Y66340D01*
X-34764Y66551D01*
X-34686Y66759D01*
X-34604Y66965D01*
X-34516Y67169D01*
X-34424Y67372D01*
X-34326Y67571D01*
X-34224Y67768D01*
X-34117Y67963D01*
X-34005Y68155D01*
X-33888Y68344D01*
X-33767Y68531D01*
X-33641Y68714D01*
X-33511Y68894D01*
X-33376Y69071D01*
X-33238Y69244D01*
X-33095Y69414D01*
X-32947Y69581D01*
X-32796Y69744D01*
X-32641Y69903D01*
X-32482Y70058D01*
X-32319Y70209D01*
X-32152Y70357D01*
X-31982Y70500D01*
X-31809Y70638D01*
X-31632Y70773D01*
X-31452Y70903D01*
X-31269Y71029D01*
X-31082Y71150D01*
X-30893Y71267D01*
X-30701Y71379D01*
X-30506Y71486D01*
X-30309Y71588D01*
X-30110Y71686D01*
X-29907Y71778D01*
X-29703Y71866D01*
X-29497Y71948D01*
X-29289Y72026D01*
X-29078Y72098D01*
X-28867Y72165D01*
X-28653Y72227D01*
X-28438Y72284D01*
X-28222Y72335D01*
X-28005Y72381D01*
X-27786Y72422D01*
X-27567Y72457D01*
X-27346Y72487D01*
X-27126Y72511D01*
X-26904Y72530D01*
X-26682Y72544D01*
X-26460Y72552D01*
X-26238Y72555D01*
X-26016Y72552D01*
X-25794Y72544D01*
X-25572Y72530D01*
X-25350Y72511D01*
X-25130Y72487D01*
X-24909Y72457D01*
X-24690Y72422D01*
X-24471Y72381D01*
X-24254Y72335D01*
X-24038Y72284D01*
X-23823Y72227D01*
X-23609Y72165D01*
X-23398Y72098D01*
X-23187Y72026D01*
X-22979Y71948D01*
X-22773Y71866D01*
X-22569Y71778D01*
X-22366Y71686D01*
X-22167Y71588D01*
X-21970Y71486D01*
X-21775Y71379D01*
X-21583Y71267D01*
X-21394Y71150D01*
X-21207Y71029D01*
X-21024Y70903D01*
X-20844Y70773D01*
X-20667Y70638D01*
X-20494Y70500D01*
X-20324Y70357D01*
X-20157Y70209D01*
X-19994Y70058D01*
X-19835Y69903D01*
X-19680Y69744D01*
X-19529Y69581D01*
X-19381Y69414D01*
X-19238Y69244D01*
X-19100Y69071D01*
X-18965Y68894D01*
X-18835Y68714D01*
X-18709Y68531D01*
X-18588Y68344D01*
X-18471Y68155D01*
X-18359Y67963D01*
X-18252Y67768D01*
X-18150Y67571D01*
X-18052Y67372D01*
X-17960Y67169D01*
X-17872Y66965D01*
X-17790Y66759D01*
X-17712Y66551D01*
X-17640Y66340D01*
X-17573Y66129D01*
X-17511Y65915D01*
X-17454Y65700D01*
X-17403Y65484D01*
X-17357Y65267D01*
X-17316Y65048D01*
X-17281Y64829D01*
X-17251Y64608D01*
X-17227Y64388D01*
X-17208Y64166D01*
X-17194Y63944D01*
X-17186Y63722D01*
X-17183Y63500D01*
X-17186Y63278D01*
X-17194Y63056D01*
X-17208Y62834D01*
X-17227Y62612D01*
X-17251Y62392D01*
X-17281Y62171D01*
X-17316Y61952D01*
X-17357Y61733D01*
X-17403Y61516D01*
X-17454Y61300D01*
X-17511Y61085D01*
X-17573Y60871D01*
X-17640Y60660D01*
X-17712Y60449D01*
X-17790Y60241D01*
X-17872Y60035D01*
X-17960Y59831D01*
X-18052Y59628D01*
X-18150Y59429D01*
X-18252Y59232D01*
X-18359Y59037D01*
X-18471Y58845D01*
X-18588Y58656D01*
X-18709Y58469D01*
X-18835Y58286D01*
X-18965Y58106D01*
X-19100Y57929D01*
X-19238Y57756D01*
X-19381Y57586D01*
X-19529Y57419D01*
X-19680Y57256D01*
X-19835Y57097D01*
X-19994Y56942D01*
X-20157Y56791D01*
X-20324Y56643D01*
X-20494Y56500D01*
X-20667Y56362D01*
X-20844Y56227D01*
X-21024Y56097D01*
X-21207Y55971D01*
X-21394Y55850D01*
X-21583Y55733D01*
X-21775Y55621D01*
X-21970Y55514D01*
X-22167Y55412D01*
X-22366Y55314D01*
X-22569Y55222D01*
X-22773Y55134D01*
X-22979Y55052D01*
X-23187Y54974D01*
X-23398Y54902D01*
X-23609Y54835D01*
X-23823Y54773D01*
X-24038Y54716D01*
X-24254Y54665D01*
X-24471Y54619D01*
X-24690Y54578D01*
X-24909Y54543D01*
X-25130Y54513D01*
X-25350Y54489D01*
X-25572Y54470D01*
X-25794Y54456D01*
X-26016Y54448D01*
X-26238Y54445D01*
X-26460Y54448D01*
X-26682Y54456D01*
X-26904Y54470D01*
X-27126Y54489D01*
X-27346Y54513D01*
X-27567Y54543D01*
X-27786Y54578D01*
X-28005Y54619D01*
X-28222Y54665D01*
X-28438Y54716D01*
X-28653Y54773D01*
X-28867Y54835D01*
X-29078Y54902D01*
X-29289Y54974D01*
X-29497Y55052D01*
X-29703Y55134D01*
X-29907Y55222D01*
X-30110Y55314D01*
X-30309Y55412D01*
X-30506Y55514D01*
X-30701Y55621D01*
X-30893Y55733D01*
X-31082Y55850D01*
X-31269Y55971D01*
X-31452Y56097D01*
X-31632Y56227D01*
X-31809Y56362D01*
X-31982Y56500D01*
X-32152Y56643D01*
X-32319Y56791D01*
X-32482Y56942D01*
X-32641Y57097D01*
X-32796Y57256D01*
X-32947Y57419D01*
X-33095Y57586D01*
X-33238Y57756D01*
X-33376Y57929D01*
X-33511Y58106D01*
X-33641Y58286D01*
X-33767Y58469D01*
X-33888Y58656D01*
X-34005Y58845D01*
X-34117Y59037D01*
X-34224Y59232D01*
X-34326Y59429D01*
X-34424Y59628D01*
X-34516Y59831D01*
X-34604Y60035D01*
X-34686Y60241D01*
X-34764Y60449D01*
X-34836Y60660D01*
X-34903Y60871D01*
X-34965Y61085D01*
X-35022Y61300D01*
X-35073Y61516D01*
X-35119Y61733D01*
X-35160Y61952D01*
X-35195Y62171D01*
X-35225Y62392D01*
X-35249Y62612D01*
X-35268Y62834D01*
X-35282Y63056D01*
X-35290Y63278D01*
X-35293Y63500D01*
D17*
X-26238Y63500D03*
M02*
