M48
;GenerationSoftware,Autodesk,EAGLE,9.6.2*%
;CreationDate,2023-09-14T20:39:18Z*%
FMAT,2
ICI,OFF
METRIC,TZ,000.000
T3C0.305
T2C1.016
T1C3.048
%
G90
M71
T1
X28448Y28448
X126492Y80264
X2540Y2540
X22860Y2540
X2540Y22860
X22860Y22860
X28448Y2540
X48768Y2540
X28448Y22860
X48768Y22860
X54356Y2540
X74676Y2540
X54356Y22860
X74676Y22860
X80264Y2540
X100584Y2540
X80264Y22860
X100584Y22860
X106172Y2540
X126492Y2540
X106172Y22860
X126492Y22860
X132080Y2540
X152400Y2540
X132080Y22860
X152400Y22860
X2540Y28448
X22860Y28448
X2540Y48768
X22860Y48768
X54356Y74676
X48768Y28448
X28448Y48768
X48768Y48768
X54356Y28448
X74676Y28448
X54356Y48768
X74676Y48768
X80264Y28448
X100584Y28448
X80264Y48768
X100584Y48768
X106172Y28448
X126492Y28448
X106172Y48768
X126492Y48768
X132080Y28448
X152400Y28448
X132080Y48768
X152400Y48768
X2540Y54356
X22860Y54356
X2540Y74676
X22860Y74676
X28448Y54356
X48768Y54356
X28448Y74676
X48768Y74676
X54356Y54356
X74676Y54356
X152400Y100584
X74676Y74676
X80264Y54356
X100584Y54356
X80264Y74676
X100584Y74676
X106172Y54356
X126492Y54356
X106172Y74676
X126492Y74676
X132080Y54356
X152400Y54356
X132080Y74676
X152400Y74676
X2540Y80264
X22860Y80264
X2540Y100584
X22860Y100584
X28448Y80264
X48768Y80264
X28448Y100584
X48768Y100584
X54356Y80264
X74676Y80264
X54356Y100584
X74676Y100584
X80264Y80264
X100584Y80264
X80264Y100584
X100584Y100584
X106172Y80264
X106172Y100584
X126492Y100584
X132080Y80264
X152400Y80264
X132080Y100584
T2
X135890Y78994
X19050Y1270
X16510Y1270
X13970Y1270
X11430Y1270
X8890Y1270
X6350Y1270
X44958Y1270
X42418Y1270
X39878Y1270
X37338Y1270
X34798Y1270
X32258Y1270
X70866Y1270
X68326Y1270
X65786Y1270
X63246Y1270
X60706Y1270
X58166Y1270
X96774Y1270
X94234Y1270
X91694Y1270
X89154Y1270
X86614Y1270
X84074Y1270
X122682Y1270
X120142Y1270
X117602Y1270
X115062Y1270
X112522Y1270
X109982Y1270
X148590Y1270
X146050Y1270
X143510Y1270
X140970Y1270
X138430Y1270
X135890Y1270
X19050Y27178
X16510Y27178
X13970Y27178
X11430Y27178
X8890Y27178
X6350Y27178
X44958Y27178
X42418Y27178
X39878Y27178
X37338Y27178
X34798Y27178
X32258Y27178
X70866Y27178
X68326Y27178
X65786Y27178
X63246Y27178
X60706Y27178
X58166Y27178
X96774Y27178
X94234Y27178
X91694Y27178
X89154Y27178
X86614Y27178
X84074Y27178
X122682Y27178
X120142Y27178
X117602Y27178
X115062Y27178
X112522Y27178
X109982Y27178
X148590Y27178
X146050Y27178
X143510Y27178
X140970Y27178
X138430Y27178
X135890Y27178
X19050Y53086
X16510Y53086
X13970Y53086
X11430Y53086
X8890Y53086
X6350Y53086
X44958Y53086
X42418Y53086
X39878Y53086
X37338Y53086
X34798Y53086
X32258Y53086
X70866Y53086
X68326Y53086
X65786Y53086
X63246Y53086
X60706Y53086
X58166Y53086
X96774Y53086
X94234Y53086
X91694Y53086
X89154Y53086
X86614Y53086
X84074Y53086
X122682Y53086
X120142Y53086
X117602Y53086
X115062Y53086
X112522Y53086
X109982Y53086
X148590Y53086
X146050Y53086
X143510Y53086
X140970Y53086
X138430Y53086
X135890Y53086
X19050Y78994
X16510Y78994
X13970Y78994
X11430Y78994
X8890Y78994
X6350Y78994
X44958Y78994
X42418Y78994
X39878Y78994
X37338Y78994
X34798Y78994
X32258Y78994
X70866Y78994
X68326Y78994
X65786Y78994
X63246Y78994
X60706Y78994
X58166Y78994
X96774Y78994
X94234Y78994
X91694Y78994
X89154Y78994
X86614Y78994
X84074Y78994
X122682Y78994
X120142Y78994
X117602Y78994
X115062Y78994
X112522Y78994
X109982Y78994
X148590Y78994
X146050Y78994
X143510Y78994
X140970Y78994
X138430Y78994
T3
X13589Y36195
X6350Y37084
X14287Y36830
X6350Y38100
X14287Y40259
X12954Y35560
X14859Y40894
X12954Y46355
X4699Y34544
X635Y34544
X18923Y43942
X6477Y43942
X12192Y40386
X9652Y36449
X10287Y45974
X21463Y37338
X14859Y37465
X14605Y35306
X12319Y36195
X8636Y40386
X6985Y36449
X6350Y40132
X8636Y37592
X15875Y40894
X14859Y42926
X3810Y40132
X3429Y32004
X22860Y33528
X889Y44958
X7620Y28702
X5334Y35179
X17907Y43942
X2540Y32004
X3810Y39116
X21717Y38100
X16637Y39751
X21590Y41910
X14859Y41910
X8763Y41910
X21463Y44704
X39497Y36195
X32258Y37084
X40196Y36830
X32258Y38100
X40196Y40259
X38862Y35560
X40767Y40894
X38862Y46355
X30607Y34544
X26543Y34544
X44831Y43942
X32385Y43942
X38100Y40386
X35560Y36449
X36195Y45974
X47371Y37338
X40767Y37465
X40513Y35306
X38227Y36195
X34544Y40386
X32893Y36449
X32258Y40132
X34544Y37592
X41783Y40894
X40767Y42926
X29718Y40132
X29337Y32004
X48768Y33528
X26797Y44958
X33528Y28702
X31242Y35179
X43815Y43942
X28448Y32004
X29718Y39116
X47625Y38100
X42545Y39751
X47498Y41910
X40767Y41910
X34671Y41910
X47371Y44704
X65405Y36195
X58166Y37084
X66104Y36830
X58166Y38100
X66104Y40259
X64770Y35560
X66675Y40894
X64770Y46355
X56515Y34544
X52451Y34544
X70739Y43942
X58293Y43942
X64008Y40386
X61468Y36449
X62103Y45974
X73279Y37338
X66675Y37465
X66421Y35306
X64135Y36195
X60452Y40386
X58801Y36449
X58166Y40132
X60452Y37592
X67691Y40894
X66675Y42926
X55626Y40132
X55245Y32004
X74676Y33528
X52705Y44958
X59436Y28702
X57150Y35179
X69723Y43942
X54356Y32004
X55626Y39116
X73533Y38100
X68453Y39751
X73406Y41910
X66675Y41910
X60579Y41910
X73279Y44704
X91313Y36195
X84074Y37084
X92011Y36830
X84074Y38100
X92011Y40259
X90678Y35560
X92583Y40894
X90678Y46355
X82423Y34544
X78359Y34544
X96647Y43942
X84201Y43942
X89916Y40386
X87376Y36449
X88011Y45974
X99187Y37338
X92583Y37465
X92329Y35306
X90043Y36195
X86360Y40386
X84709Y36449
X84074Y40132
X86360Y37592
X93599Y40894
X92583Y42926
X81534Y40132
X81153Y32004
X100584Y33528
X78613Y44958
X85344Y28702
X83058Y35179
X95631Y43942
X80264Y32004
X81534Y39116
X99441Y38100
X94361Y39751
X99314Y41910
X92583Y41910
X86487Y41910
X99187Y44704
X117221Y36195
X109982Y37084
X117919Y36830
X109982Y38100
X117919Y40259
X116586Y35560
X118491Y40894
X116586Y46355
X108331Y34544
X104267Y34544
X122555Y43942
X110109Y43942
X115824Y40386
X113284Y36449
X113919Y45974
X125095Y37338
X118491Y37465
X118237Y35306
X115951Y36195
X112268Y40386
X110617Y36449
X109982Y40132
X112268Y37592
X119507Y40894
X118491Y42926
X107442Y40132
X107061Y32004
X126492Y33528
X104521Y44958
X111252Y28702
X108966Y35179
X121539Y43942
X106172Y32004
X107442Y39116
X125349Y38100
X120269Y39751
X125222Y41910
X118491Y41910
X112395Y41910
X125095Y44704
X143129Y36195
X135890Y37084
X143828Y36830
X135890Y38100
X143828Y40259
X142494Y35560
X144399Y40894
X142494Y46355
X134239Y34544
X130175Y34544
X148463Y43942
X136017Y43942
X141732Y40386
X139192Y36449
X139827Y45974
X151003Y37338
X144399Y37465
X144145Y35306
X141859Y36195
X138176Y40386
X136525Y36449
X135890Y40132
X138176Y37592
X145415Y40894
X144399Y42926
X133350Y40132
X132969Y32004
X152400Y33528
X130429Y44958
X137160Y28702
X134874Y35179
X147447Y43942
X132080Y32004
X133350Y39116
X151257Y38100
X146177Y39751
X151130Y41910
X144399Y41910
X138303Y41910
X151003Y44704
X13589Y62103
X6350Y62992
X14287Y62738
X6350Y64008
X14287Y66167
X12954Y61468
X14859Y66802
X12954Y72263
X4699Y60452
X635Y60452
X18923Y69850
X6477Y69850
X12192Y66294
X9652Y62357
X10287Y71882
X21463Y63246
X14859Y63373
X14605Y61214
X12319Y62103
X8636Y66294
X6985Y62357
X6350Y66040
X8636Y63500
X15875Y66802
X14859Y68834
X3810Y66040
X3429Y57912
X22860Y59436
X889Y70866
X7620Y54610
X5334Y61087
X17907Y69850
X2540Y57912
X3810Y65024
X21717Y64008
X16637Y65659
X21590Y67818
X14859Y67818
X8763Y67818
X21463Y70612
X39497Y62103
X32258Y62992
X40196Y62738
X32258Y64008
X40196Y66167
X38862Y61468
X40767Y66802
X38862Y72263
X30607Y60452
X26543Y60452
X44831Y69850
X32385Y69850
X38100Y66294
X35560Y62357
X36195Y71882
X47371Y63246
X40767Y63373
X40513Y61214
X38227Y62103
X34544Y66294
X32893Y62357
X32258Y66040
X34544Y63500
X41783Y66802
X40767Y68834
X29718Y66040
X29337Y57912
X48768Y59436
X26797Y70866
X33528Y54610
X31242Y61087
X43815Y69850
X28448Y57912
X29718Y65024
X47625Y64008
X42545Y65659
X47498Y67818
X40767Y67818
X34671Y67818
X47371Y70612
X65405Y62103
X58166Y62992
X66104Y62738
X58166Y64008
X66104Y66167
X64770Y61468
X66675Y66802
X64770Y72263
X56515Y60452
X52451Y60452
X70739Y69850
X58293Y69850
X64008Y66294
X61468Y62357
X62103Y71882
X73279Y63246
X66675Y63373
X66421Y61214
X64135Y62103
X60452Y66294
X58801Y62357
X58166Y66040
X60452Y63500
X67691Y66802
X66675Y68834
X55626Y66040
X55245Y57912
X74676Y59436
X52705Y70866
X59436Y54610
X57150Y61087
X69723Y69850
X54356Y57912
X55626Y65024
X73533Y64008
X68453Y65659
X73406Y67818
X66675Y67818
X60579Y67818
X73279Y70612
X83058Y9271
X84074Y62992
X92011Y62738
X84074Y64008
X92011Y66167
X90678Y61468
X92583Y66802
X90678Y72263
X82423Y60452
X78359Y60452
X96647Y69850
X84201Y69850
X89916Y66294
X87376Y62357
X88011Y71882
X99187Y63246
X92583Y63373
X92329Y61214
X90043Y62103
X86360Y66294
X84709Y62357
X84074Y66040
X86360Y63500
X93599Y66802
X92583Y68834
X81534Y66040
X81153Y57912
X100584Y59436
X78613Y70866
X85344Y54610
X83058Y61087
X95631Y69850
X80264Y57912
X81534Y65024
X99441Y64008
X94361Y65659
X99314Y67818
X92583Y67818
X86487Y67818
X99187Y70612
X117221Y62103
X109982Y62992
X117919Y62738
X109982Y64008
X117919Y66167
X116586Y61468
X118491Y66802
X116586Y72263
X108331Y60452
X104267Y60452
X122555Y69850
X110109Y69850
X115824Y66294
X113284Y62357
X113919Y71882
X125095Y63246
X118491Y63373
X118237Y61214
X115951Y62103
X112268Y66294
X110617Y62357
X109982Y66040
X112268Y63500
X119507Y66802
X118491Y68834
X107442Y66040
X107061Y57912
X126492Y59436
X104521Y70866
X111252Y54610
X108966Y61087
X121539Y69850
X106172Y57912
X107442Y65024
X125349Y64008
X120269Y65659
X125222Y67818
X118491Y67818
X112395Y67818
X125095Y70612
X143129Y62103
X135890Y62992
X143828Y62738
X135890Y64008
X143828Y66167
X142494Y61468
X144399Y66802
X142494Y72263
X134239Y60452
X130175Y60452
X148463Y69850
X136017Y69850
X141732Y66294
X139192Y62357
X139827Y71882
X151003Y63246
X144399Y63373
X144145Y61214
X141859Y62103
X138176Y66294
X136525Y62357
X135890Y66040
X138176Y63500
X145415Y66802
X144399Y68834
X133350Y66040
X132969Y57912
X152400Y59436
X130429Y70866
X137160Y54610
X134874Y61087
X147447Y69850
X132080Y57912
X133350Y65024
X151257Y64008
X146177Y65659
X151130Y67818
X144399Y67818
X138303Y67818
X151003Y70612
X13589Y88011
X6350Y88900
X14287Y88646
X6350Y89916
X14287Y92075
X12954Y87376
X14859Y92710
X12954Y98171
X4699Y86360
X635Y86360
X18923Y95758
X6477Y95758
X12192Y92202
X9652Y88265
X10287Y97790
X21463Y89154
X14859Y89281
X14605Y87122
X12319Y88011
X8636Y92202
X6985Y88265
X6350Y91948
X8636Y89408
X15875Y92710
X14859Y94742
X3810Y91948
X3429Y83820
X22860Y85344
X889Y96774
X7620Y80518
X5334Y86995
X17907Y95758
X2540Y83820
X3810Y90932
X21717Y89916
X16637Y91567
X21590Y93726
X14859Y93726
X8763Y93726
X21463Y96520
X39497Y88011
X32258Y88900
X40196Y88646
X32258Y89916
X40196Y92075
X38862Y87376
X40767Y92710
X38862Y98171
X30607Y86360
X26543Y86360
X44831Y95758
X32385Y95758
X38100Y92202
X35560Y88265
X36195Y97790
X47371Y89154
X40767Y89281
X40513Y87122
X38227Y88011
X34544Y92202
X32893Y88265
X32258Y91948
X34544Y89408
X41783Y92710
X40767Y94742
X29718Y91948
X29337Y83820
X48768Y85344
X26797Y96774
X33528Y80518
X31242Y86995
X43815Y95758
X28448Y83820
X29718Y90932
X47625Y89916
X42545Y91567
X47498Y93726
X40767Y93726
X34671Y93726
X47371Y96520
X65405Y88011
X58166Y88900
X66104Y88646
X58166Y89916
X66104Y92075
X64770Y87376
X66675Y92710
X64770Y98171
X56515Y86360
X52451Y86360
X70739Y95758
X58293Y95758
X64008Y92202
X61468Y88265
X62103Y97790
X73279Y89154
X66675Y89281
X66421Y87122
X64135Y88011
X60452Y92202
X58801Y88265
X58166Y91948
X60452Y89408
X67691Y92710
X66675Y94742
X55626Y91948
X55245Y83820
X74676Y85344
X52705Y96774
X59436Y80518
X57150Y86995
X69723Y95758
X54356Y83820
X55626Y90932
X73533Y89916
X68453Y91567
X73406Y93726
X66675Y93726
X60579Y93726
X73279Y96520
X91313Y88011
X84074Y88900
X92011Y88646
X84074Y89916
X92011Y92075
X90678Y87376
X92583Y92710
X90678Y98171
X82423Y86360
X78359Y86360
X96647Y95758
X84201Y95758
X89916Y92202
X87376Y88265
X88011Y97790
X99187Y89154
X92583Y89281
X92329Y87122
X90043Y88011
X86360Y92202
X84709Y88265
X84074Y91948
X86360Y89408
X93599Y92710
X92583Y94742
X81534Y91948
X81153Y83820
X100584Y85344
X78613Y96774
X85344Y80518
X83058Y86995
X95631Y95758
X80264Y83820
X81534Y90932
X99441Y89916
X94361Y91567
X99314Y93726
X92583Y93726
X86487Y93726
X99187Y96520
X117221Y88011
X109982Y88900
X117919Y88646
X109982Y89916
X117919Y92075
X116586Y87376
X118491Y92710
X116586Y98171
X108331Y86360
X104267Y86360
X122555Y95758
X110109Y95758
X115824Y92202
X113284Y88265
X113919Y97790
X125095Y89154
X118491Y89281
X118237Y87122
X115951Y88011
X13589Y10287
X110617Y88265
X109982Y91948
X112268Y89408
X119507Y92710
X118491Y94742
X107442Y91948
X107061Y83820
X126492Y85344
X104521Y96774
X111252Y80518
X108966Y86995
X121539Y95758
X106172Y83820
X107442Y90932
X125349Y89916
X120269Y91567
X125222Y93726
X118491Y93726
X112395Y93726
X125095Y96520
X143129Y88011
X135890Y88900
X143828Y88646
X135890Y89916
X143828Y92075
X142494Y87376
X144399Y92710
X142494Y98171
X134239Y86360
X130175Y86360
X148463Y95758
X136017Y95758
X141732Y92202
X139192Y88265
X139827Y97790
X151003Y89154
X144399Y89281
X144145Y87122
X141859Y88011
X138176Y92202
X136525Y88265
X135890Y91948
X138176Y89408
X145415Y92710
X144399Y94742
X133350Y91948
X132969Y83820
X152400Y85344
X130429Y96774
X137160Y80518
X134874Y86995
X147447Y95758
X132080Y83820
X133350Y90932
X151257Y89916
X146177Y91567
X151130Y93726
X144399Y93726
X138303Y93726
X151003Y96520
X6350Y11176
X14287Y10922
X6350Y12192
X14287Y14351
X12954Y9652
X14859Y14986
X12954Y20447
X4699Y8636
X635Y8636
X18923Y18034
X6477Y18034
X12192Y14478
X9652Y10541
X10287Y20066
X21463Y11430
X14859Y11557
X14605Y9398
X12319Y10287
X8636Y14478
X6985Y10541
X6350Y14224
X8636Y11684
X15875Y14986
X14859Y17018
X3810Y14224
X3429Y6096
X22860Y7620
X889Y19050
X7620Y2794
X5334Y9271
X17907Y18034
X2540Y6096
X3810Y13208
X21717Y12192
X16637Y13843
X21590Y16002
X14859Y16002
X8763Y16002
X21463Y18796
X39497Y10287
X32258Y11176
X40196Y10922
X32258Y12192
X40196Y14351
X38862Y9652
X40767Y14986
X38862Y20447
X30607Y8636
X26543Y8636
X44831Y18034
X32385Y18034
X38100Y14478
X35560Y10541
X36195Y20066
X47371Y11430
X40767Y11557
X40513Y9398
X38227Y10287
X34544Y14478
X32893Y10541
X32258Y14224
X34544Y11684
X41783Y14986
X40767Y17018
X29718Y14224
X29337Y6096
X48768Y7620
X26797Y19050
X33528Y2794
X31242Y9271
X43815Y18034
X28448Y6096
X29718Y13208
X47625Y12192
X42545Y13843
X47498Y16002
X40767Y16002
X34671Y16002
X47371Y18796
X65405Y10287
X58166Y11176
X66104Y10922
X58166Y12192
X66104Y14351
X64770Y9652
X66675Y14986
X64770Y20447
X56515Y8636
X52451Y8636
X91313Y62103
X70739Y18034
X58293Y18034
X64008Y14478
X61468Y10541
X62103Y20066
X73279Y11430
X66675Y11557
X66421Y9398
X64135Y10287
X60452Y14478
X58801Y10541
X58166Y14224
X60452Y11684
X67691Y14986
X66675Y17018
X55626Y14224
X55245Y6096
X74676Y7620
X52705Y19050
X59436Y2794
X57150Y9271
X69723Y18034
X54356Y6096
X55626Y13208
X73533Y12192
X68453Y13843
X73406Y16002
X66675Y16002
X60579Y16002
X73279Y18796
X91313Y10287
X84074Y11176
X92011Y10922
X84074Y12192
X92011Y14351
X90678Y9652
X92583Y14986
X90678Y20447
X82423Y8636
X78359Y8636
X96647Y18034
X84201Y18034
X89916Y14478
X87376Y10541
X88011Y20066
X99187Y11430
X92583Y11557
X92329Y9398
X90043Y10287
X86360Y14478
X84709Y10541
X84074Y14224
X86360Y11684
X93599Y14986
X92583Y17018
X81534Y14224
X81153Y6096
X100584Y7620
X78613Y19050
X85344Y2794
X95631Y18034
X80264Y6096
X81534Y13208
X99441Y12192
X94361Y13843
X99314Y16002
X92583Y16002
X86487Y16002
X99187Y18796
X117221Y10287
X109982Y11176
X117919Y10922
X109982Y12192
X117919Y14351
X116586Y9652
X118491Y14986
X116586Y20447
X108331Y8636
X104267Y8636
X122555Y18034
X110109Y18034
X115824Y14478
X113284Y10541
X113919Y20066
X125095Y11430
X118491Y11557
X118237Y9398
X115951Y10287
X112268Y14478
X110617Y10541
X109982Y14224
X112268Y11684
X119507Y14986
X118491Y17018
X107442Y14224
X107061Y6096
X126492Y7620
X104521Y19050
X111252Y2794
X108966Y9271
X121539Y18034
X106172Y6096
X107442Y13208
X125349Y12192
X120269Y13843
X125222Y16002
X118491Y16002
X112395Y16002
X125095Y18796
X143129Y10287
X135890Y11176
X143828Y10922
X135890Y12192
X143828Y14351
X142494Y9652
X144399Y14986
X142494Y20447
X134239Y8636
X130175Y8636
X148463Y18034
X136017Y18034
X141732Y14478
X139192Y10541
X139827Y20066
X151003Y11430
X144399Y11557
X144145Y9398
X141859Y10287
X138176Y14478
X136525Y10541
X135890Y14224
X138176Y11684
X145415Y14986
X144399Y17018
X133350Y14224
X132969Y6096
X152400Y7620
X130429Y19050
X137160Y2794
X134874Y9271
X147447Y18034
X132080Y6096
X133350Y13208
X151257Y12192
X146177Y13843
X151130Y16002
X144399Y16002
X138303Y16002
X151003Y18796
X112268Y92202
M30